<svg width="194" height="57" viewBox="0 0 194 57" fill="none" xmlns="http://www.w3.org/2000/svg">
<path d="M0 43.1016L12.57 0H22.45L35.34 43.1016H26.97L21.07 22.3008C20.36 19.6172 19.64 16.6875 18.91 13.4883C18.18 10.2891 17.41 6.80859 16.6 3.03516H18.25C17.46 6.83203 16.72 10.3359 16.04 13.5469C15.36 16.7578 14.68 19.6758 14 22.3008L8.32 43.1016H0ZM7.85 33.0937V26.1797H27.48V33.0937H7.85Z" fill="white"/>
<path d="M50.88 43.7461C48.1 43.7461 45.7 43.043 43.68 41.6485C41.66 40.2539 40.11 38.2969 39.01 35.8008C37.91 33.3047 37.37 30.3985 37.37 27.082C37.37 23.7656 37.92 20.8008 39.01 18.3047C40.1 15.8086 41.66 13.8633 43.68 12.457C45.7 11.0508 48.09 10.3594 50.88 10.3594C52.51 10.3594 54.02 10.6055 55.4 11.1094C56.78 11.6133 58.01 12.3281 59.08 13.2539C60.15 14.1797 61.03 15.3047 61.72 16.6406C62.41 17.9766 62.89 19.4649 63.15 21.1289L56.26 22.6289C56.11 21.7852 55.88 21.0235 55.57 20.3555C55.26 19.6875 54.88 19.125 54.43 18.6445C53.98 18.1641 53.47 17.8125 52.89 17.5547C52.31 17.2969 51.66 17.1797 50.95 17.1797C49.63 17.1797 48.53 17.5899 47.63 18.4219C46.73 19.2539 46.06 20.4141 45.61 21.8906C45.16 23.3672 44.93 25.0899 44.93 27.0352C44.93 28.9805 45.16 30.6445 45.61 32.1328C46.06 33.6211 46.74 34.7813 47.63 35.6367C48.52 36.4922 49.63 36.9141 50.95 36.9141C51.66 36.9141 52.31 36.7852 52.9 36.5274C53.49 36.2695 54.02 35.8945 54.48 35.4024C54.94 34.9102 55.33 34.3125 55.64 33.6211C55.95 32.9297 56.17 32.1445 56.31 31.2774L63.2 32.7539C62.94 34.4649 62.46 36 61.77 37.336C61.08 38.6719 60.2 39.832 59.13 40.793C58.06 41.7539 56.83 42.4922 55.44 42.9961C54.05 43.5 52.53 43.7461 50.89 43.7461H50.88Z" fill="white"/>
<path d="M77.79 43.5117C75.88 43.5117 74.21 43.0195 72.78 42.0469C71.35 41.0742 70.24 39.6797 69.46 37.8516C68.68 36.0234 68.29 33.8555 68.29 31.3242V10.7578H75.7V29.8242C75.7 31.8281 76.14 33.3984 77.03 34.5352C77.92 35.6719 79.14 36.2461 80.68 36.2461C81.73 36.2461 82.66 35.9766 83.47 35.4492C84.28 34.9219 84.91 34.1484 85.36 33.1289C85.81 32.1094 86.04 30.8906 86.04 29.4727V10.7578H93.47V43.1016H86.46L86.36 35.0273H86.78C86.06 37.7461 84.95 39.8438 83.46 41.3086C81.97 42.7734 80.08 43.5117 77.79 43.5117Z" fill="white"/>
<path d="M113.46 10.7578V17.3789H97.09V10.7578H113.46ZM100.89 3.07033H108.3V33.6445C108.3 34.6641 108.49 35.4258 108.88 35.918C109.27 36.4102 109.91 36.6563 110.82 36.6563C111.1 36.6563 111.49 36.6094 112.01 36.5274C112.53 36.4453 112.91 36.3633 113.17 36.2813L114.23 42.7852C113.41 43.0781 112.59 43.2774 111.77 43.3945C110.95 43.5117 110.18 43.5703 109.44 43.5703C106.67 43.5703 104.56 42.7852 103.1 41.2031C101.64 39.6211 100.9 37.3594 100.9 34.4063V3.07033H100.89Z" fill="white"/>
<path d="M127.78 43.5117C125.87 43.5117 124.2 43.0195 122.77 42.0469C121.34 41.0742 120.23 39.6797 119.45 37.8516C118.67 36.0234 118.28 33.8555 118.28 31.3242V10.7578H125.69V29.8242C125.69 31.8281 126.13 33.3984 127.02 34.5352C127.91 35.6719 129.13 36.2461 130.67 36.2461C131.72 36.2461 132.65 35.9766 133.46 35.4492C134.27 34.9219 134.9 34.1484 135.35 33.1289C135.8 32.1094 136.03 30.8906 136.03 29.4727V10.7578H143.46V43.1016H136.45L136.35 35.0273H136.77C136.05 37.7461 134.94 39.8438 133.45 41.3086C131.96 42.7734 130.07 43.5117 127.78 43.5117Z" fill="white"/>
<path d="M160.71 43.7461C158.49 43.7461 156.52 43.3711 154.81 42.6328C153.1 41.8945 151.7 40.8047 150.61 39.3867C149.52 37.9688 148.82 36.2578 148.51 34.2539L155.4 32.8594C155.76 34.3594 156.4 35.4961 157.3 36.2461C158.2 36.9961 159.41 37.3711 160.93 37.3711C162.35 37.3711 163.46 37.0547 164.28 36.4336C165.1 35.8125 165.5 35.0156 165.5 34.043C165.5 33.1992 165.21 32.4961 164.62 31.957C164.03 31.418 163.14 31.0078 161.94 30.7148L157.18 29.5547C154.51 28.9219 152.52 27.832 151.21 26.2969C149.9 24.7617 149.23 22.793 149.23 20.3789C149.23 18.293 149.72 16.5117 150.69 15.0117C151.66 13.5117 153.01 12.3633 154.74 11.5547C156.47 10.7461 158.5 10.3359 160.84 10.3359C163.01 10.3359 164.9 10.6875 166.49 11.3906C168.08 12.0938 169.38 13.0899 170.37 14.3906C171.36 15.6914 172.02 17.2031 172.35 18.9609L165.78 20.3203C165.5 19.2188 164.96 18.3164 164.16 17.6133C163.36 16.9102 162.29 16.5586 160.94 16.5586C159.72 16.5586 158.7 16.8633 157.88 17.4609C157.06 18.0586 156.65 18.8555 156.65 19.8633C156.65 20.6719 156.92 21.3633 157.45 21.9141C157.98 22.4649 158.9 22.9102 160.2 23.2149L165.16 24.375C167.83 25.0078 169.81 26.0508 171.11 27.4805C172.41 28.9102 173.06 30.7969 173.06 33.1055C173.06 35.2266 172.53 37.0781 171.48 38.6719C170.43 40.2656 168.97 41.5078 167.12 42.3867C165.27 43.2656 163.13 43.7227 160.71 43.7227V43.7461Z" fill="white"/>
<path d="M184.67 57C183.52 57 182.44 56.7422 181.43 56.2383C180.42 55.7344 179.53 55.0195 178.77 54.1172C178.01 53.2148 177.41 52.1719 176.97 50.9883C176.53 49.8047 176.32 48.5391 176.32 47.1914C176.32 45.8437 176.54 44.5781 176.97 43.3828C177.4 42.1875 178.01 41.1562 178.77 40.2539C179.53 39.3516 180.42 38.6484 181.43 38.1328C182.44 37.6172 183.52 37.3594 184.67 37.3594C185.82 37.3594 186.92 37.6172 187.93 38.1328C188.94 38.6484 189.83 39.3516 190.6 40.2539C191.37 41.1562 191.97 42.1992 192.4 43.3828C192.83 44.5664 193.05 45.832 193.05 47.1914C193.05 48.5508 192.83 49.8047 192.4 50.9883C191.97 52.1719 191.37 53.2148 190.6 54.1172C189.83 55.0195 188.94 55.7227 187.93 56.2383C186.92 56.7539 185.83 57 184.67 57ZM184.67 54.4219C185.81 54.4219 186.85 54.0937 187.79 53.4375C188.73 52.7812 189.47 51.9141 190.02 50.8125C190.57 49.7227 190.85 48.5039 190.85 47.1797C190.85 45.8555 190.57 44.625 190.01 43.5352C189.45 42.4453 188.71 41.5781 187.78 40.9219C186.85 40.2656 185.81 39.9492 184.67 39.9492C183.53 39.9492 182.5 40.2773 181.57 40.9219C180.63 41.5781 179.89 42.4453 179.33 43.5352C178.77 44.625 178.49 45.832 178.49 47.168C178.49 48.5039 178.77 49.7227 179.33 50.8125C179.89 51.9141 180.63 52.7812 181.57 53.4375C182.5 54.0937 183.54 54.4219 184.67 54.4219ZM181.64 51.6445V42.6094H185.43C185.91 42.6094 186.35 42.7266 186.75 42.9492C187.15 43.1836 187.48 43.5117 187.72 43.957C187.96 44.4023 188.09 44.9414 188.09 45.5742C188.09 46.207 187.96 46.7578 187.71 47.2148C187.45 47.6719 187.12 48.0117 186.71 48.2461C186.3 48.4805 185.84 48.5859 185.34 48.5859H182.74V47.0508H184.91C185.2 47.0508 185.45 46.9336 185.67 46.6992C185.88 46.4648 185.99 46.1016 185.99 45.6211C185.99 45.1406 185.88 44.8125 185.67 44.6133C185.45 44.4141 185.21 44.3086 184.93 44.3086H183.64V51.6445H181.65H181.64ZM186.15 51.6445L184.49 47.4609H186.56L188.34 51.6445H186.14H186.15Z" fill="white"/>
</svg>
