<?xml version="1.0" encoding="UTF-8"?>
<svg id="Layer_1" data-name="Layer 1" xmlns="http://www.w3.org/2000/svg" viewBox="0 0 425 104">
  <defs>
    <style>
      .cls-1 {
        fill: #fff;
      }
    </style>
  </defs>
  <path class="cls-1" d="M115.98,64.46l12.57-36.78h9.88l12.89,36.78h-8.37l-5.9-17.75c-.71-2.29-1.43-4.79-2.16-7.52s-1.5-5.7-2.31-8.92h1.65c-.79,3.24-1.53,6.23-2.21,8.97s-1.36,5.23-2.04,7.47l-5.68,17.75h-8.32ZM123.83,55.92v-5.9h19.63v5.9h-19.63Z"/>
  <path class="cls-1" d="M166.86,65.01c-2.78,0-5.18-.6-7.2-1.79s-3.57-2.86-4.67-4.99-1.64-4.61-1.64-7.44.55-5.36,1.64-7.49,2.65-3.79,4.67-4.99,4.41-1.79,7.2-1.79c1.63,0,3.14.21,4.52.64s2.61,1.04,3.68,1.83,1.95,1.75,2.64,2.89,1.17,2.41,1.43,3.83l-6.89,1.28c-.15-.72-.38-1.37-.69-1.94s-.69-1.05-1.14-1.46-.96-.71-1.54-.93-1.23-.32-1.94-.32c-1.32,0-2.42.35-3.32,1.06s-1.57,1.7-2.02,2.96-.68,2.73-.68,4.39.23,3.08.68,4.35,1.13,2.26,2.02,2.99,2,1.09,3.32,1.09c.71,0,1.36-.11,1.95-.33s1.12-.54,1.58-.96.85-.93,1.16-1.52.53-1.26.67-2l6.89,1.26c-.26,1.46-.74,2.77-1.43,3.91s-1.57,2.13-2.64,2.95-2.3,1.45-3.69,1.88-2.91.64-4.55.64Z"/>
  <path class="cls-1" d="M193.77,64.81c-1.91,0-3.58-.42-5.01-1.25s-2.54-2.02-3.32-3.58-1.17-3.41-1.17-5.57v-17.55h7.41v16.27c0,1.71.44,3.05,1.33,4.02s2.11,1.46,3.65,1.46c1.05,0,1.98-.23,2.79-.68s1.44-1.11,1.89-1.98.68-1.91.68-3.12v-15.97h7.43v27.6h-7.01l-.1-6.89h.42c-.72,2.32-1.83,4.11-3.32,5.36s-3.38,1.88-5.67,1.88Z"/>
  <path class="cls-1" d="M229.44,36.86v5.65h-16.37v-5.65h16.37ZM216.87,30.3h7.41v26.09c0,.87.19,1.52.58,1.94s1.03.63,1.94.63c.28,0,.67-.04,1.19-.11s.9-.14,1.16-.21l1.06,5.55c-.82.25-1.64.42-2.46.52s-1.59.15-2.33.15c-2.77,0-4.88-.67-6.34-2.02s-2.2-3.28-2.2-5.8v-26.74Z"/>
  <path class="cls-1" d="M243.76,64.81c-1.91,0-3.58-.42-5.01-1.25s-2.54-2.02-3.32-3.58-1.17-3.41-1.17-5.57v-17.55h7.41v16.27c0,1.71.44,3.05,1.33,4.02s2.11,1.46,3.65,1.46c1.05,0,1.98-.23,2.79-.68s1.44-1.11,1.89-1.98.68-1.91.68-3.12v-15.97h7.43v27.6h-7.01l-.1-6.89h.42c-.72,2.32-1.83,4.11-3.32,5.36s-3.38,1.88-5.67,1.88Z"/>
  <path class="cls-1" d="M276.69,65.01c-2.22,0-4.19-.32-5.9-.95s-3.11-1.56-4.2-2.77-1.79-2.67-2.1-4.38l6.89-1.19c.36,1.28,1,2.25,1.9,2.89s2.11.96,3.63.96c1.42,0,2.53-.27,3.35-.8s1.22-1.21,1.22-2.04c0-.72-.29-1.32-.88-1.78s-1.48-.81-2.68-1.06l-4.76-.99c-2.67-.54-4.66-1.47-5.97-2.78s-1.98-2.99-1.98-5.05c0-1.78.49-3.3,1.46-4.58s2.32-2.26,4.05-2.95,3.76-1.04,6.1-1.04c2.17,0,4.06.3,5.65.9s2.89,1.45,3.88,2.56,1.65,2.4,1.98,3.9l-6.57,1.16c-.28-.94-.82-1.71-1.62-2.31s-1.87-.9-3.22-.9c-1.22,0-2.24.26-3.06.77s-1.23,1.19-1.23,2.05c0,.69.27,1.28.8,1.75s1.45.85,2.75,1.11l4.96.99c2.67.54,4.65,1.43,5.95,2.65s1.95,2.83,1.95,4.8c0,1.81-.53,3.39-1.58,4.75s-2.51,2.42-4.36,3.17-3.99,1.14-6.41,1.14Z"/>
  <path class="cls-1" d="M300.65,76.32c-1.15,0-2.23-.22-3.24-.65s-1.9-1.04-2.66-1.81c-.76-.77-1.36-1.66-1.8-2.67s-.65-2.09-.65-3.24.22-2.23.65-3.25,1.04-1.9,1.8-2.67c.76-.77,1.65-1.37,2.66-1.81,1.01-.44,2.09-.66,3.24-.66s2.25.22,3.26.66c1.01.44,1.9,1.04,2.67,1.81.77.77,1.37,1.66,1.8,2.67s.65,2.09.65,3.25-.22,2.23-.65,3.24-1.03,1.9-1.8,2.67c-.77.77-1.66,1.37-2.67,1.81s-2.1.65-3.26.65ZM300.65,74.12c1.14,0,2.18-.28,3.12-.84.94-.56,1.68-1.3,2.23-2.24.55-.93.83-1.97.83-3.1s-.28-2.18-.84-3.11c-.56-.93-1.3-1.67-2.23-2.23-.93-.56-1.97-.83-3.11-.83s-2.17.28-3.1.83c-.94.56-1.68,1.3-2.24,2.23-.56.93-.84,1.96-.84,3.1s.28,2.18.84,3.11c.56.94,1.3,1.68,2.24,2.24.93.56,1.97.84,3.1.84ZM297.62,71.75v-7.71h3.79c.48,0,.92.1,1.32.29.4.2.73.48.97.86s.37.84.37,1.38-.13,1.01-.38,1.4c-.26.39-.59.68-1,.88-.41.2-.87.29-1.37.29h-2.6v-1.31h2.17c.29,0,.54-.1.76-.3.21-.2.32-.51.32-.92s-.11-.69-.32-.86c-.22-.17-.46-.26-.74-.26h-1.29v6.26h-1.99ZM302.13,71.75l-1.66-3.57h2.07l1.78,3.57h-2.2Z"/>
</svg>