<svg width="426" height="473" viewBox="0 0 426 473" fill="none" xmlns="http://www.w3.org/2000/svg">
<g clip-path="url(#clip0_243_588)">
<path d="M148.433 347.531C148.841 347.717 149.286 347.809 149.768 347.809C150.287 347.809 150.788 347.679 151.233 347.457L172.591 384.48C171.776 385.092 171.238 386.075 171.238 387.17C171.238 389.026 172.758 390.548 174.612 390.548C176.466 390.548 177.987 389.026 177.987 387.17C177.987 385.315 176.466 383.793 174.612 383.793C174.13 383.793 173.685 383.886 173.277 384.071L151.919 347.03C152.679 346.418 153.18 345.471 153.18 344.432C153.18 343.318 152.642 342.353 151.808 341.741L174.965 301.601L175.076 301.396L150.621 258.992H195.971C196.063 260.774 197.528 262.202 199.327 262.202C199.809 262.202 200.254 262.091 200.661 261.924L222.075 299.058C221.501 299.671 221.148 300.469 221.148 301.359C221.148 302.436 221.649 303.382 222.446 303.995L199.252 344.228L199.141 344.432L224.189 387.857H224.634L249.293 430.596H292.436C292.862 431.95 294.123 432.952 295.643 432.952C297.164 432.952 298.406 431.95 298.851 430.596H299.166V429.816H298.999C298.999 429.816 299.018 429.668 299.018 429.593C299.018 427.738 297.497 426.216 295.643 426.216C293.789 426.216 292.269 427.738 292.269 429.593C292.269 429.668 292.269 429.742 292.287 429.816H249.738L225.542 387.857H274.285L299.222 344.636L299.333 344.432L299.166 344.135V343.745H298.943L278.215 307.817C280.83 307.205 282.832 304.978 283.092 302.25H323.658L348.465 259.233L371.714 218.907C372.122 219.093 372.567 219.186 373.049 219.186C374.903 219.186 376.423 217.664 376.423 215.808C376.423 213.952 374.903 212.431 373.049 212.431C372.567 212.431 372.122 212.523 371.714 212.709L348.724 172.865L370.416 135.267C371.232 135.657 372.14 135.88 373.105 135.88C376.386 135.88 379.112 133.356 379.427 130.146H419.325C419.622 131.704 420.994 132.892 422.626 132.892C424.48 132.892 426 131.37 426 129.515C426 127.659 424.48 126.137 422.626 126.137C420.772 126.137 419.363 127.566 419.27 129.348H379.39C379.334 127.269 378.277 125.432 376.683 124.318L397.986 87.3885L398.097 87.1843L373.234 44.0561L373.327 43.8705L373.216 43.7963L373.346 43.5922L373.457 43.388L348.409 -0.0371094H298.313L273.636 42.7385L249.126 0.241272H199.03L174.093 43.4622L173.982 43.6664L197.25 83.9924C196.527 84.5306 196.045 85.3471 195.934 86.2935H149.861L128.317 48.9554C130.023 47.8233 131.154 45.8748 131.154 43.6664C131.154 40.159 128.299 37.3196 124.813 37.3196C123.96 37.3196 123.145 37.4867 122.403 37.8022L100.748 0.259796H50.652L25.7154 43.4808L25.6041 43.685L50.1515 86.2564L50.0031 86.5163L49.8919 86.7018L50.1515 87.1658L25.7154 129.533L25.6041 129.737L48.8165 169.989C48.0935 170.601 47.63 171.511 47.63 172.531C47.63 174.387 49.1503 175.909 51.0043 175.909C52.6544 175.909 54.0264 174.721 54.323 173.162H100.025L121.402 210.222C119.678 211.317 118.528 213.229 118.472 215.4H78.4995C78.2956 213.73 76.8865 212.412 75.1623 212.412C73.438 212.412 72.029 213.711 71.825 215.4H25.0108L0.0741577 258.621L-0.0370789 258.825L25.0108 302.25H71.825C71.9363 303.159 72.3813 303.939 73.0672 304.477L50.0031 344.45L49.8919 344.655L73.8274 386.15H25.9564L1.01971 429.371L0.908478 429.575L25.9564 473H76.0522L100.989 429.779L101.1 429.575L77.1646 388.08H125.036L148.433 347.531ZM77.4427 304.329C78.0175 303.79 78.4069 303.067 78.4995 302.25H118.491C118.806 305.461 121.513 307.984 124.813 307.984C125.833 307.984 126.778 307.743 127.631 307.316L147.562 341.889C147.006 342.372 146.598 343.003 146.45 343.764H100.173L77.4427 304.347V304.329ZM75.4033 129.366L51.0785 87.1843L51.1155 87.1287H96.6876C96.669 87.2957 96.6319 87.4627 96.6319 87.6483C96.6319 89.5041 98.1522 91.0258 100.006 91.0258C100.803 91.0258 101.527 90.7289 102.12 90.2649L121.624 124.077C119.807 125.153 118.565 127.121 118.491 129.385H75.4218L75.4033 129.366ZM118.472 44.0932C118.602 46.3016 119.863 48.1945 121.68 49.2337L101.304 84.5491C100.896 84.3635 100.451 84.2708 99.9692 84.2708C98.5786 84.2708 97.3735 85.1244 96.8544 86.3492H51.0785L51.0414 86.2935L75.3662 44.1118H118.454L118.472 44.0932ZM195.934 87.1287C196.138 88.7989 197.547 90.1164 199.271 90.1164C199.753 90.1164 200.198 90.0237 200.606 89.8381L223.633 129.774L202.2 166.946C201.329 166.482 200.328 166.222 199.271 166.222C198.288 166.222 197.38 166.444 196.545 166.834L174.798 129.143H131.135C131.006 127.139 129.967 125.376 128.41 124.3L149.861 87.1287H195.934ZM249.126 87.1287L273.803 44.3531L298.22 86.6833L298.035 86.9987L297.924 87.1843L273.376 129.737L273.265 129.941L296.459 170.156C295.68 170.768 295.161 171.715 295.161 172.791C295.161 173.868 295.699 174.87 296.533 175.482L273.506 215.418H224.449L202.775 177.858C204.481 176.725 205.612 174.777 205.612 172.569C205.612 170.36 204.518 168.486 202.868 167.335L224.43 129.96L224.541 129.774L201.273 89.4484C201.996 88.9102 202.478 88.0937 202.59 87.1472H249.126V87.1287ZM347.945 87.2957L369.341 124.374C367.746 125.525 366.69 127.399 366.69 129.515C366.69 129.626 366.69 129.719 366.69 129.811H323.398L298.869 87.2771H347.945V87.2957ZM347.945 86.0523H299.481L323.417 44.5572H371.881L347.945 86.0523ZM301.409 258.454C301.354 256.635 299.87 255.188 298.054 255.188C297.683 255.188 297.33 255.262 296.997 255.373L274.415 216.216H317.039C317.039 216.216 317.039 216.291 317.039 216.346C317.039 219.854 319.894 222.693 323.38 222.693C324.492 222.693 325.53 222.415 326.42 221.914L347.5 258.472H301.409V258.454ZM276.695 295.272C274.693 295.272 272.913 296.2 271.745 297.648L249.348 258.825L273.71 216.588L296.255 255.689C295.291 256.283 294.661 257.34 294.661 258.547C294.661 259.864 295.421 260.978 296.515 261.534L277.047 295.291C276.936 295.291 276.806 295.291 276.695 295.291M323.361 209.962C320.172 209.962 317.521 212.338 317.076 215.418H274.396L297.201 175.89C297.609 176.076 298.054 176.169 298.536 176.169C300.204 176.169 301.576 174.944 301.854 173.348H347.5L326.031 210.575C325.215 210.204 324.307 209.981 323.361 209.981M131.135 129.923H174.353L195.86 167.205C194.191 168.263 193.06 170.082 192.949 172.16H152.939C152.642 170.601 151.27 169.414 149.639 169.414C149.157 169.414 148.712 169.507 148.304 169.692L128.225 134.878C129.875 133.82 131.024 132.001 131.154 129.923M149.62 176.15C151.344 176.15 152.753 174.851 152.957 173.162H192.949C193.134 175.148 194.265 176.874 195.86 177.895L174.353 215.177H131.135C131.006 213.136 129.93 211.354 128.317 210.278L148.192 175.816C148.637 176.02 149.119 176.15 149.62 176.15ZM149.175 258.844L127.743 296.015C126.871 295.551 125.87 295.291 124.813 295.291C121.439 295.291 118.695 297.926 118.491 301.248H78.481C78.3141 300.357 77.8135 299.596 77.0905 299.095L98.5972 261.813C98.9124 261.906 99.2461 261.98 99.5984 261.98C101.397 261.98 102.861 260.551 102.954 258.769H149.138L149.175 258.825V258.844ZM124.813 221.932C125.796 221.932 126.704 221.709 127.539 221.32L148.693 257.99H102.917C102.62 256.431 101.248 255.243 99.6169 255.243C99.1349 255.243 98.6899 255.355 98.282 255.522L77.0163 218.647C77.8506 218.109 78.4068 217.237 78.5366 216.198H118.528C118.843 219.408 121.55 221.932 124.85 221.932M75.1808 219.186C75.5702 219.186 75.941 219.111 76.2932 218.981L97.596 255.911C96.7802 256.524 96.2426 257.489 96.2426 258.602C96.2426 259.79 96.8544 260.829 97.7814 261.423L76.2932 298.687C75.941 298.557 75.5702 298.483 75.1808 298.483C74.6988 298.483 74.2538 298.576 73.8459 298.761L50.8189 258.825L73.8459 218.889C74.2538 219.074 74.6988 219.167 75.1808 219.167M151.085 341.333C150.677 341.147 150.232 341.054 149.75 341.054C149.194 341.054 148.674 341.203 148.211 341.444L128.299 306.927C130.004 305.795 131.135 303.846 131.135 301.638C131.135 299.429 130.042 297.555 128.391 296.404L149.805 259.27L174.112 301.396L151.085 341.333ZM149.991 257.99H149.731L128.317 220.874C129.93 219.798 131.006 218.016 131.135 215.975H174.798L196.545 178.284C197.38 178.674 198.288 178.915 199.271 178.915C200.254 178.915 201.236 178.674 202.089 178.247L223.633 215.585L200.495 255.707C200.105 255.559 199.697 255.466 199.271 255.466C197.621 255.466 196.249 256.654 195.971 258.213H150.139L150.009 257.99H149.991ZM202.627 258.844C202.627 257.73 202.089 256.765 201.273 256.153L224.319 216.216H273.043L248.57 258.658L248.458 258.862L271.263 298.39C270.781 299.188 270.484 300.079 270.391 301.025H227.823C227.638 299.337 226.228 298.019 224.486 298.019C223.8 298.019 223.169 298.223 222.65 298.576L201.292 261.553C202.108 260.941 202.645 259.957 202.645 258.862M273.766 387.078H225.153L248.217 347.104C248.792 347.55 249.497 347.828 250.275 347.828C252.092 347.828 253.575 346.362 253.631 344.562H298.313L273.784 387.096L273.766 387.078ZM297.961 343.745H253.557C253.242 342.205 251.888 341.054 250.257 341.054C248.403 341.054 246.882 342.558 246.882 344.432C246.882 345.23 247.16 345.935 247.624 346.51L224.412 386.762L199.994 344.413L223.077 304.403C223.503 304.607 223.985 304.718 224.486 304.718C226.043 304.718 227.341 303.661 227.73 302.213H270.391C270.707 305.423 273.413 307.947 276.714 307.947C276.918 307.947 277.122 307.947 277.325 307.91L297.979 343.708L297.961 343.745ZM323.139 301.471H283.054C282.98 298.446 280.793 295.959 277.919 295.402L297.293 261.831C297.553 261.887 297.794 261.924 298.072 261.924C299.704 261.924 301.057 260.774 301.372 259.233H347.519L323.157 301.471H323.139ZM369.638 215.808C369.638 216.922 370.175 217.887 371.01 218.499L348.186 258.046L327.088 221.45C328.682 220.299 329.72 218.425 329.72 216.309C329.72 214.045 328.534 212.059 326.735 210.927L348.242 173.645L371.01 213.099C370.194 213.711 369.638 214.695 369.638 215.79M348.057 172.402H301.891C301.687 170.731 300.278 169.414 298.554 169.414C298.054 169.414 297.571 169.525 297.145 169.729L274.192 129.923L298.387 87.9823L322.972 130.609H366.801C367.116 132.41 368.191 133.95 369.675 134.896L348.038 172.383L348.057 172.402ZM397.188 87.2029L376.015 123.929C375.125 123.465 374.124 123.186 373.049 123.186C371.974 123.186 370.972 123.465 370.083 123.929L348.631 86.739L372.789 44.8727L397.207 87.2029H397.188ZM298.777 0.798004H347.964L372.548 43.4252L372.344 43.7778H322.972L298.684 85.8853L274.192 43.4252L298.777 0.798004ZM174.89 43.7035L199.475 1.07635H248.662L273.247 43.7035L248.662 86.3307H202.59C202.386 84.6605 200.977 83.3429 199.252 83.3429C198.77 83.3429 198.325 83.4356 197.917 83.6212L174.89 43.685V43.7035ZM149.175 86.7204L127.743 123.892C126.871 123.428 125.87 123.168 124.813 123.168C123.923 123.168 123.07 123.353 122.292 123.687L102.658 89.6525C103.084 89.0772 103.362 88.3906 103.362 87.6111C103.362 86.4977 102.824 85.5327 102.009 84.9203L122.403 49.5492C123.145 49.8647 123.96 50.0317 124.813 50.0317C125.833 50.0317 126.778 49.7905 127.631 49.3636L149.175 86.7018V86.7204ZM26.5126 43.7035L51.097 1.07635H100.284L121.68 38.1733C119.863 39.2126 118.602 41.1054 118.472 43.3138H74.9398L50.615 85.4956L26.5126 43.7035ZM26.5126 129.756L50.615 87.9638L74.9398 130.146H118.491C118.676 132.131 119.807 133.857 121.402 134.878L99.7838 172.364V172.402H54.3601C54.2674 170.62 52.8027 169.191 51.0043 169.191C50.4481 169.191 49.929 169.34 49.4655 169.581L26.494 129.774L26.5126 129.756ZM100.841 173.014L122.514 135.453C123.237 135.731 123.997 135.898 124.813 135.898C125.796 135.898 126.704 135.676 127.539 135.267L147.618 170.1C146.802 170.713 146.246 171.696 146.246 172.791C146.246 173.886 146.746 174.795 147.525 175.408L127.631 209.907C126.778 209.48 125.814 209.239 124.813 209.239C123.812 209.239 122.922 209.461 122.088 209.851L100.841 173.014ZM0.889923 258.844L25.4743 216.216H71.825C71.9363 217.163 72.4183 217.979 73.1414 218.518L49.9846 258.658L49.8734 258.862L73.1414 299.188C72.4183 299.726 71.9363 300.543 71.825 301.489H25.4743L0.889923 258.862V258.844ZM50.8004 344.655L73.7347 304.904C74.1797 305.108 74.6617 305.238 75.1623 305.238C75.7556 305.238 76.3118 305.071 76.7938 304.793L99.5798 344.283L75.4218 386.15H74.7358L50.8004 344.655ZM75.6072 472.221H26.4199L1.83548 429.593L26.4199 386.966H74.2909L74.9398 388.098H75.3662L99.7467 430.354L75.6072 472.221ZM76.7011 387.3L76.182 386.41L100.173 344.822H146.413C146.524 345.768 147.006 346.585 147.729 347.123L124.554 387.3H76.6826H76.7011Z" fill="#DADADA" fill-opacity="0.15"/>
</g>
<defs>
<clipPath id="clip0_243_588">
<rect width="426" height="473" fill="white" transform="matrix(-1 0 0 -1 426 473)"/>
</clipPath>
</defs>
</svg>
