<svg width="347" height="80" viewBox="0 0 347 80" fill="none" xmlns="http://www.w3.org/2000/svg">
<path d="M1.61719 45.7207L4.83398 45.4395C4.98633 46.7285 5.33789 47.7891 5.88867 48.6211C6.45117 49.4414 7.31836 50.1094 8.49023 50.625C9.66211 51.1289 10.9805 51.3809 12.4453 51.3809C13.7461 51.3809 14.8945 51.1875 15.8906 50.8008C16.8867 50.4141 17.625 49.8867 18.1055 49.2188C18.5977 48.5391 18.8438 47.8008 18.8438 47.0039C18.8438 46.1953 18.6094 45.4922 18.1406 44.8945C17.6719 44.2852 16.8984 43.7754 15.8203 43.3652C15.1289 43.0957 13.5996 42.6797 11.2324 42.1172C8.86523 41.543 7.20703 41.0039 6.25781 40.5C5.02734 39.8555 4.10742 39.0586 3.49805 38.1094C2.90039 37.1484 2.60156 36.0762 2.60156 34.8926C2.60156 33.5918 2.9707 32.3789 3.70898 31.2539C4.44727 30.1172 5.52539 29.2559 6.94336 28.6699C8.36133 28.084 9.9375 27.791 11.6719 27.791C13.582 27.791 15.2637 28.1016 16.7168 28.7227C18.1816 29.332 19.3066 30.2344 20.0918 31.4297C20.877 32.625 21.2988 33.9785 21.3574 35.4902L18.0879 35.7363C17.9121 34.1074 17.3145 32.877 16.2949 32.0449C15.2871 31.2129 13.793 30.7969 11.8125 30.7969C9.75 30.7969 8.24414 31.1777 7.29492 31.9395C6.35742 32.6895 5.88867 33.5977 5.88867 34.6641C5.88867 35.5898 6.22266 36.3516 6.89062 36.9492C7.54688 37.5469 9.25781 38.1621 12.0234 38.7949C14.8008 39.416 16.7051 39.9609 17.7363 40.4297C19.2363 41.1211 20.3438 42 21.0586 43.0664C21.7734 44.1211 22.1309 45.3398 22.1309 46.7227C22.1309 48.0938 21.7383 49.3887 20.9531 50.6074C20.168 51.8145 19.0371 52.7578 17.5605 53.4375C16.0957 54.1055 14.4434 54.4395 12.6035 54.4395C10.2715 54.4395 8.31445 54.0996 6.73242 53.4199C5.16211 52.7402 3.92578 51.7207 3.02344 50.3613C2.13281 48.9902 1.66406 47.4434 1.61719 45.7207ZM26.6836 54V28.2305H31.8164L37.916 46.4766C38.4785 48.1758 38.8887 49.4473 39.1465 50.291C39.4395 49.3535 39.8965 47.9766 40.5176 46.1602L46.6875 28.2305H51.2754V54H47.9883V32.4316L40.5 54H37.4238L29.9707 32.0625V54H26.6836ZM55.7402 41.4492C55.7402 37.1719 56.8887 33.8262 59.1855 31.4121C61.4824 28.9863 64.4473 27.7734 68.0801 27.7734C70.459 27.7734 72.6035 28.3418 74.5137 29.4785C76.4238 30.6152 77.877 32.2031 78.873 34.2422C79.8809 36.2695 80.3848 38.5723 80.3848 41.1504C80.3848 43.7637 79.8574 46.1016 78.8027 48.1641C77.748 50.2266 76.2539 51.791 74.3203 52.8574C72.3867 53.9121 70.3008 54.4395 68.0625 54.4395C65.6367 54.4395 63.4688 53.8535 61.5586 52.6816C59.6484 51.5098 58.2012 49.9102 57.2168 47.8828C56.2324 45.8555 55.7402 43.7109 55.7402 41.4492ZM59.2559 41.502C59.2559 44.6074 60.0879 47.0566 61.752 48.8496C63.4277 50.6309 65.5254 51.5215 68.0449 51.5215C70.6113 51.5215 72.7207 50.6191 74.373 48.8145C76.0371 47.0098 76.8691 44.4492 76.8691 41.1328C76.8691 39.0352 76.5117 37.207 75.7969 35.6484C75.0938 34.0781 74.0566 32.8652 72.6855 32.0098C71.3262 31.1426 69.7969 30.709 68.0977 30.709C65.6836 30.709 63.6035 31.541 61.8574 33.2051C60.123 34.8574 59.2559 37.623 59.2559 41.502ZM83.7598 41.4492C83.7598 37.1719 84.9082 33.8262 87.2051 31.4121C89.502 28.9863 92.4668 27.7734 96.0996 27.7734C98.4785 27.7734 100.623 28.3418 102.533 29.4785C104.443 30.6152 105.896 32.2031 106.893 34.2422C107.9 36.2695 108.404 38.5723 108.404 41.1504C108.404 43.7637 107.877 46.1016 106.822 48.1641C105.768 50.2266 104.273 51.791 102.34 52.8574C100.406 53.9121 98.3203 54.4395 96.082 54.4395C93.6562 54.4395 91.4883 53.8535 89.5781 52.6816C87.668 51.5098 86.2207 49.9102 85.2363 47.8828C84.252 45.8555 83.7598 43.7109 83.7598 41.4492ZM87.2754 41.502C87.2754 44.6074 88.1074 47.0566 89.7715 48.8496C91.4473 50.6309 93.5449 51.5215 96.0645 51.5215C98.6309 51.5215 100.74 50.6191 102.393 48.8145C104.057 47.0098 104.889 44.4492 104.889 41.1328C104.889 39.0352 104.531 37.207 103.816 35.6484C103.113 34.0781 102.076 32.8652 100.705 32.0098C99.3457 31.1426 97.8164 30.709 96.1172 30.709C93.7031 30.709 91.623 31.541 89.877 33.2051C88.1426 34.8574 87.2754 37.623 87.2754 41.502ZM119.373 54V31.2715H110.883V28.2305H131.309V31.2715H122.783V54H119.373ZM134.93 54V28.2305H138.34V38.8125H151.734V28.2305H155.145V54H151.734V41.8535H138.34V54H134.93ZM169.646 41.2734C169.646 38.6484 170.039 36.4453 170.824 34.6641C171.41 33.3516 172.207 32.1738 173.215 31.1309C174.234 30.0879 175.348 29.3145 176.555 28.8105C178.16 28.1309 180.012 27.791 182.109 27.791C185.906 27.791 188.941 28.9688 191.215 31.3242C193.5 33.6797 194.643 36.9551 194.643 41.1504C194.643 45.3105 193.512 48.5684 191.25 50.9238C188.988 53.2676 185.965 54.4395 182.18 54.4395C178.348 54.4395 175.301 53.2734 173.039 50.9414C170.777 48.5977 169.646 45.375 169.646 41.2734ZM175.008 41.0977C175.008 44.0156 175.682 46.2305 177.029 47.7422C178.377 49.2422 180.088 49.9922 182.162 49.9922C184.236 49.9922 185.936 49.248 187.26 47.7598C188.596 46.2598 189.264 44.0156 189.264 41.0273C189.264 38.0742 188.613 35.8711 187.312 34.418C186.023 32.9648 184.307 32.2383 182.162 32.2383C180.018 32.2383 178.289 32.9766 176.977 34.4531C175.664 35.918 175.008 38.1328 175.008 41.0977ZM198.721 54V28.2305H207.07C210.234 28.2305 212.297 28.3594 213.258 28.6172C214.734 29.0039 215.971 29.8477 216.967 31.1484C217.963 32.4375 218.461 34.1074 218.461 36.1582C218.461 37.7402 218.174 39.0703 217.6 40.1484C217.025 41.2266 216.293 42.0762 215.402 42.6973C214.523 43.3066 213.627 43.7109 212.713 43.9102C211.471 44.1562 209.672 44.2793 207.316 44.2793H203.924V54H198.721ZM203.924 32.5898V39.9023H206.771C208.822 39.9023 210.193 39.7676 210.885 39.498C211.576 39.2285 212.115 38.8066 212.502 38.2324C212.9 37.6582 213.1 36.9902 213.1 36.2285C213.1 35.291 212.824 34.5176 212.273 33.9082C211.723 33.2988 211.025 32.918 210.182 32.7656C209.561 32.6484 208.312 32.5898 206.438 32.5898H203.924ZM228.533 54V32.5898H220.887V28.2305H241.365V32.5898H233.736V54H228.533ZM244.582 54V28.2305H249.785V54H244.582ZM271.248 44.5254L276.293 46.125C275.52 48.9375 274.23 51.0293 272.426 52.4004C270.633 53.7598 268.354 54.4395 265.588 54.4395C262.166 54.4395 259.354 53.2734 257.15 50.9414C254.947 48.5977 253.846 45.3984 253.846 41.3438C253.846 37.0547 254.953 33.7266 257.168 31.3594C259.383 28.9805 262.295 27.791 265.904 27.791C269.057 27.791 271.617 28.7227 273.586 30.5859C274.758 31.6875 275.637 33.2695 276.223 35.332L271.072 36.5625C270.768 35.2266 270.129 34.1719 269.156 33.3984C268.195 32.625 267.023 32.2383 265.641 32.2383C263.73 32.2383 262.178 32.9238 260.982 34.2949C259.799 35.666 259.207 37.8867 259.207 40.957C259.207 44.2148 259.793 46.5352 260.965 47.918C262.137 49.3008 263.66 49.9922 265.535 49.9922C266.918 49.9922 268.107 49.5527 269.104 48.6738C270.1 47.7949 270.814 46.4121 271.248 44.5254ZM279.457 45.6152L284.52 45.123C284.824 46.8223 285.439 48.0703 286.365 48.8672C287.303 49.6641 288.562 50.0625 290.145 50.0625C291.82 50.0625 293.08 49.7109 293.924 49.0078C294.779 48.293 295.207 47.4609 295.207 46.5117C295.207 45.9023 295.025 45.3867 294.662 44.9648C294.311 44.5312 293.689 44.1562 292.799 43.8398C292.189 43.6289 290.801 43.2539 288.633 42.7148C285.844 42.0234 283.887 41.1738 282.762 40.166C281.18 38.748 280.389 37.0195 280.389 34.9805C280.389 33.668 280.758 32.4434 281.496 31.3066C282.246 30.1582 283.318 29.2852 284.713 28.6875C286.119 28.0898 287.812 27.791 289.793 27.791C293.027 27.791 295.459 28.5 297.088 29.918C298.729 31.3359 299.59 33.2285 299.672 35.5957L294.469 35.8242C294.246 34.5 293.766 33.5508 293.027 32.9766C292.301 32.3906 291.205 32.0977 289.74 32.0977C288.229 32.0977 287.045 32.4082 286.189 33.0293C285.639 33.4277 285.363 33.9609 285.363 34.6289C285.363 35.2383 285.621 35.7598 286.137 36.1934C286.793 36.7441 288.387 37.3184 290.918 37.916C293.449 38.5137 295.318 39.1348 296.525 39.7793C297.744 40.4121 298.693 41.2852 299.373 42.3984C300.064 43.5 300.41 44.8652 300.41 46.4941C300.41 47.9707 300 49.3535 299.18 50.6426C298.359 51.9316 297.199 52.8926 295.699 53.5254C294.199 54.1465 292.33 54.457 290.092 54.457C286.834 54.457 284.332 53.707 282.586 52.207C280.84 50.6953 279.797 48.498 279.457 45.6152Z" fill="white"/>
<path d="M195.311 58.5861C194.971 58.5861 194.702 58.3169 194.702 57.9771C194.702 57.6372 194.971 57.3682 195.311 57.3682C195.65 57.3682 195.92 57.6372 195.92 57.9771C195.92 58.3169 195.65 58.5861 195.311 58.5861Z" fill="#089DD9"/>
<path d="M193.215 64.4201C193.793 64.4201 194.263 63.9509 194.263 63.3721C194.263 62.7934 193.793 62.3242 193.215 62.3242C192.636 62.3242 192.167 62.7934 192.167 63.3721C192.167 63.9509 192.636 64.4201 193.215 64.4201Z" fill="#089DD9"/>
<path d="M189.901 69.4758C190.66 69.4758 191.275 68.8607 191.275 68.1021C191.275 67.3435 190.66 66.7285 189.901 66.7285C189.142 66.7285 188.527 67.3435 188.527 68.1021C188.527 68.8607 189.142 69.4758 189.901 69.4758Z" fill="#089DD9"/>
<path d="M185.61 73.6105C186.51 73.6105 187.239 72.8814 187.239 71.982C187.239 71.0826 186.51 70.3535 185.61 70.3535C184.711 70.3535 183.982 71.0826 183.982 71.982C183.982 72.8814 184.711 73.6105 185.61 73.6105Z" fill="#089DD9"/>
<path d="M180.569 76.5998C181.555 76.5998 182.354 75.801 182.354 74.8155C182.354 73.8301 181.555 73.0312 180.569 73.0312C179.584 73.0312 178.785 73.8301 178.785 74.8155C178.785 75.801 179.584 76.5998 180.569 76.5998Z" fill="#089DD9"/>
<path d="M175.047 78.4269C176.087 78.4269 176.93 77.5838 176.93 76.5436C176.93 75.5034 176.087 74.6602 175.047 74.6602C174.007 74.6602 173.163 75.5034 173.163 76.5436C173.163 77.5838 174.007 78.4269 175.047 78.4269Z" fill="#089DD9"/>
<path d="M169.283 79.0208C168.221 79.0208 167.357 78.1569 167.357 77.0948C167.357 76.0327 168.221 75.1689 169.283 75.1689C170.345 75.1689 171.208 76.0327 171.208 77.0948C171.208 78.1569 170.345 79.0208 169.283 79.0208Z" fill="#089DD9"/>
<path d="M163.519 78.341C164.559 78.341 165.403 77.4978 165.403 76.4577C165.403 75.4175 164.559 74.5742 163.519 74.5742C162.479 74.5742 161.636 75.4175 161.636 76.4577C161.636 77.4978 162.479 78.341 163.519 78.341Z" fill="#089DD9"/>
<path d="M158.025 76.4436C157.034 76.4436 156.241 75.6506 156.241 74.6593C156.241 73.668 157.034 72.875 158.025 72.875C159.017 72.875 159.81 73.668 159.81 74.6593C159.81 75.6506 159.017 76.4436 158.025 76.4436Z" fill="#089DD9"/>
<path d="M153.026 73.3557C152.134 73.3557 151.397 72.6335 151.397 71.7272C151.397 70.8209 152.119 70.0986 153.026 70.0986C153.932 70.0986 154.654 70.8209 154.654 71.7272C154.654 72.6335 153.932 73.3557 153.026 73.3557Z" fill="#089DD9"/>
<path d="M148.792 69.1505C148.041 69.1505 147.432 68.5417 147.432 67.7911C147.432 67.0406 148.041 66.4316 148.792 66.4316C149.542 66.4316 150.151 67.0406 150.151 67.7911C150.151 68.5417 149.542 69.1505 148.792 69.1505Z" fill="#089DD9"/>
<path d="M145.563 64.0099C146.126 64.0099 146.583 63.5534 146.583 62.9903C146.583 62.4272 146.126 61.9707 145.563 61.9707C145 61.9707 144.544 62.4272 144.544 62.9903C144.544 63.5534 145 64.0099 145.563 64.0099Z" fill="#089DD9"/>
<path d="M143.566 58.1329C143.879 58.1329 144.133 57.8793 144.133 57.5665C144.133 57.2536 143.879 57 143.566 57C143.254 57 143 57.2536 143 57.5665C143 57.8793 143.254 58.1329 143.566 58.1329Z" fill="#089DD9"/>
<path d="M100.609 21.6377C100.269 21.6377 100 21.3687 100 21.0288C100 20.689 100.269 20.4199 100.609 20.4199C100.949 20.4199 101.218 20.689 101.218 21.0288C101.218 21.3687 100.949 21.6377 100.609 21.6377Z" fill="#089DD9"/>
<path d="M102.705 16.6817C103.283 16.6817 103.753 16.2126 103.753 15.6338C103.753 15.0551 103.283 14.5859 102.705 14.5859C102.126 14.5859 101.657 15.0551 101.657 15.6338C101.657 16.2126 102.126 16.6817 102.705 16.6817Z" fill="#089DD9"/>
<path d="M106.018 12.2785C106.777 12.2785 107.392 11.6635 107.392 10.9049C107.392 10.1463 106.777 9.53125 106.018 9.53125C105.26 9.53125 104.645 10.1463 104.645 10.9049C104.645 11.6635 105.26 12.2785 106.018 12.2785Z" fill="#089DD9"/>
<path d="M110.309 8.66717C109.403 8.66717 108.681 7.93076 108.681 7.03862C108.681 6.14648 109.417 5.41016 110.309 5.41016C111.201 5.41016 111.938 6.14648 111.938 7.03862C111.938 7.93076 111.201 8.66717 110.309 8.66717Z" fill="#089DD9"/>
<path d="M115.351 5.97574C116.336 5.97574 117.135 5.17687 117.135 4.19144C117.135 3.20601 116.336 2.40723 115.351 2.40723C114.365 2.40723 113.566 3.20601 113.566 4.19144C113.566 5.17687 114.365 5.97574 115.351 5.97574Z" fill="#089DD9"/>
<path d="M120.873 4.34793C119.839 4.34793 118.99 3.5124 118.99 2.46449C118.99 1.41658 119.825 0.581055 120.873 0.581055C121.921 0.581055 122.757 1.41658 122.757 2.46449C122.757 3.5124 121.921 4.34793 120.873 4.34793Z" fill="#089DD9"/>
<path d="M126.637 3.85175C125.575 3.85175 124.711 2.98795 124.711 1.92587C124.711 0.8638 125.575 0 126.637 0C127.699 0 128.563 0.8638 128.563 1.92587C128.563 2.98795 127.699 3.85175 126.637 3.85175Z" fill="#089DD9"/>
<path d="M132.401 4.43387C133.441 4.43387 134.284 3.59061 134.284 2.55043C134.284 1.51025 133.441 0.666992 132.401 0.666992C131.36 0.666992 130.517 1.51025 130.517 2.55043C130.517 3.59061 131.36 4.43387 132.401 4.43387Z" fill="#089DD9"/>
<path d="M137.895 6.13208C136.904 6.13208 136.111 5.33905 136.111 4.34778C136.111 3.35651 136.904 2.56348 137.895 2.56348C138.886 2.56348 139.679 3.35651 139.679 4.34778C139.679 5.33905 138.886 6.13208 137.895 6.13208Z" fill="#089DD9"/>
<path d="M142.894 8.9074C142.001 8.9074 141.265 8.18524 141.265 7.27894C141.265 6.37264 141.987 5.65039 142.894 5.65039C143.8 5.65039 144.522 6.37264 144.522 7.27894C144.522 8.18524 143.8 8.9074 142.894 8.9074Z" fill="#089DD9"/>
<path d="M147.128 12.5754C146.377 12.5754 145.769 11.9665 145.769 11.2159C145.769 10.4654 146.377 9.85645 147.128 9.85645C147.879 9.85645 148.487 10.4654 148.487 11.2159C148.487 11.9665 147.879 12.5754 147.128 12.5754Z" fill="#089DD9"/>
<path d="M150.357 17.0353C150.92 17.0353 151.376 16.5788 151.376 16.0157C151.376 15.4526 150.92 14.9961 150.357 14.9961C149.794 14.9961 149.337 15.4526 149.337 16.0157C149.337 16.5788 149.794 17.0353 150.357 17.0353Z" fill="#089DD9"/>
<path d="M152.353 22.0069C152.042 22.0069 151.787 21.752 151.787 21.4405C151.787 21.129 152.042 20.874 152.353 20.874C152.665 20.874 152.92 21.129 152.92 21.4405C152.92 21.752 152.665 22.0069 152.353 22.0069Z" fill="#089DD9"/>
</svg>
