<?xml version="1.0" encoding="UTF-8"?>
<svg id="Layer_1" data-name="Layer 1" xmlns="http://www.w3.org/2000/svg" viewBox="0 0 425 104">
  <defs>
    <style>
      .cls-1 {
        fill: #fff;
      }
    </style>
  </defs>
  <path class="cls-1" d="M118.91,61.12c-1.59,0-2.98-.24-4.16-.73-1.18-.49-2.1-1.21-2.76-2.18-.66-.96-1.01-2.14-1.04-3.55h3.96c.05.67.25,1.23.6,1.68s.81.79,1.39,1.01c.58.22,1.23.33,1.96.33s1.36-.1,1.9-.31c.54-.21.96-.51,1.26-.89.3-.38.45-.83.45-1.33,0-.45-.13-.83-.41-1.14-.27-.31-.66-.57-1.17-.79s-1.13-.42-1.86-.59l-2.19-.55c-1.68-.41-3-1.05-3.95-1.93-.95-.88-1.43-2.04-1.43-3.48,0-1.2.32-2.25.97-3.15.65-.9,1.53-1.6,2.66-2.1,1.13-.5,2.41-.75,3.85-.75s2.75.25,3.84.75,1.95,1.2,2.56,2.1.93,1.92.95,3.09h-3.94c-.07-.8-.41-1.42-1.02-1.86-.61-.44-1.42-.65-2.44-.65-.68,0-1.27.1-1.76.29-.49.2-.86.47-1.11.81s-.38.74-.38,1.19c0,.49.15.9.44,1.22s.69.59,1.17.79c.49.2,1.01.37,1.56.5l1.8.44c.84.19,1.61.44,2.34.76s1.35.71,1.9,1.18c.54.47.96,1.02,1.26,1.66.3.64.45,1.38.45,2.22,0,1.2-.3,2.25-.91,3.14-.6.89-1.48,1.59-2.63,2.08-1.15.49-2.53.73-4.14.73Z"/>
  <path class="cls-1" d="M133.59,40.94v19.89h-4.07v-19.89h4.07Z"/>
  <path class="cls-1" d="M137.19,60.83v-19.89h4.54l6.29,10.06c.32.52.65,1.08.97,1.68.33.61.67,1.28,1.01,2.02.34.74.68,1.57,1.02,2.5h-.41c-.06-.74-.12-1.53-.17-2.36-.05-.84-.09-1.64-.13-2.4-.03-.77-.05-1.41-.05-1.95v-9.54h4.16v19.89h-4.55l-5.71-9.13c-.42-.69-.8-1.35-1.16-2-.36-.65-.73-1.36-1.11-2.14s-.85-1.71-1.38-2.8h.52c.05.96.11,1.88.16,2.76s.1,1.68.13,2.4c.03.72.05,1.3.05,1.76v9.14h-4.16Z"/>
  <path class="cls-1" d="M166.84,61.09c-1.86,0-3.49-.41-4.89-1.23s-2.5-2-3.28-3.52-1.18-3.33-1.18-5.43.41-3.99,1.23-5.52c.82-1.53,1.93-2.69,3.32-3.5,1.4-.81,2.97-1.21,4.71-1.21,1.12,0,2.16.16,3.13.49.97.32,1.82.79,2.58,1.38.75.6,1.37,1.3,1.84,2.12.48.81.79,1.72.93,2.7h-4.14c-.14-.48-.34-.91-.59-1.29s-.56-.7-.92-.97-.77-.47-1.23-.61c-.46-.14-.97-.21-1.52-.21-1.02,0-1.93.26-2.71.77-.78.51-1.39,1.26-1.83,2.24-.44.98-.65,2.17-.65,3.58s.22,2.6.65,3.58c.43.98,1.04,1.73,1.82,2.25.78.52,1.71.77,2.78.77.96,0,1.78-.17,2.47-.52.69-.35,1.21-.84,1.58-1.49.37-.65.55-1.4.55-2.26l.85.12h-5.18v-3.1h8.28v2.48c0,1.74-.37,3.24-1.11,4.49-.74,1.25-1.75,2.21-3.04,2.88-1.29.67-2.77,1.01-4.43,1.01Z"/>
  <path class="cls-1" d="M178.54,60.83v-19.89h4.07v16.51h8.58v3.38h-12.65Z"/>
  <path class="cls-1" d="M194,60.83v-19.89h13.31v3.38h-9.24v4.8h8.54v3.32h-8.54v5.01h9.26v3.38h-13.33Z"/>
  <path class="cls-1" d="M222.9,60.83l-6.97-19.89h4.52l3.18,9.6c.38,1.21.77,2.54,1.16,4s.8,3.05,1.24,4.77h-.88c.43-1.74.83-3.34,1.2-4.78s.74-2.77,1.11-3.98l3.07-9.6h4.5l-6.81,19.89h-5.33Z"/>
  <path class="cls-1" d="M241.55,40.94v19.89h-4.07v-19.89h4.07Z"/>
  <path class="cls-1" d="M252.45,61.12c-1.59,0-2.98-.24-4.16-.73-1.18-.49-2.1-1.21-2.76-2.18s-1.01-2.14-1.04-3.55h3.96c.05.67.25,1.23.6,1.68s.81.79,1.39,1.01,1.23.33,1.96.33,1.36-.1,1.9-.31.96-.51,1.26-.89.45-.83.45-1.33c0-.45-.14-.83-.41-1.14s-.66-.57-1.17-.79-1.13-.42-1.86-.59l-2.19-.55c-1.68-.41-3-1.05-3.95-1.93s-1.43-2.04-1.43-3.48c0-1.2.32-2.25.97-3.15s1.53-1.6,2.66-2.1,2.41-.75,3.85-.75,2.75.25,3.84.75,1.95,1.2,2.56,2.1.93,1.92.95,3.09h-3.94c-.07-.8-.41-1.42-1.02-1.86s-1.42-.65-2.44-.65c-.68,0-1.27.1-1.76.29s-.86.47-1.11.81-.38.74-.38,1.19c0,.49.15.9.44,1.22s.68.59,1.17.79,1.01.37,1.56.5l1.8.44c.84.19,1.61.44,2.34.76s1.35.71,1.9,1.18.96,1.02,1.26,1.66.45,1.38.45,2.22c0,1.2-.3,2.25-.91,3.14s-1.48,1.59-2.63,2.08c-1.15.49-2.53.73-4.14.73Z"/>
  <path class="cls-1" d="M267.13,40.94v19.89h-4.07v-19.89h4.07Z"/>
  <path class="cls-1" d="M279.46,61.09c-1.75,0-3.33-.4-4.73-1.2s-2.51-1.96-3.32-3.48-1.22-3.36-1.22-5.51.41-4.01,1.22-5.53,1.92-2.69,3.32-3.49,2.98-1.2,4.73-1.2,3.34.4,4.74,1.2,2.5,1.96,3.32,3.49,1.22,3.37,1.22,5.53-.41,3.99-1.22,5.51-1.92,2.68-3.32,3.48-2.98,1.2-4.74,1.2ZM279.46,57.48c1.03,0,1.93-.25,2.7-.75s1.37-1.25,1.8-2.23.64-2.18.64-3.6-.21-2.64-.64-3.62-1.03-1.73-1.8-2.23-1.67-.75-2.7-.75-1.92.25-2.7.76-1.37,1.25-1.8,2.24-.64,2.19-.64,3.61.21,2.61.64,3.59,1.03,1.72,1.8,2.23,1.67.76,2.7.76Z"/>
  <path class="cls-1" d="M291.79,60.83v-19.89h4.54l6.29,10.06c.32.52.64,1.08.97,1.68s.66,1.28,1.01,2.02.68,1.57,1.02,2.5h-.41c-.06-.74-.12-1.53-.17-2.36s-.09-1.64-.13-2.4-.05-1.41-.05-1.95v-9.54h4.16v19.89h-4.55l-5.71-9.13c-.42-.69-.8-1.35-1.16-2s-.73-1.36-1.11-2.14-.85-1.71-1.38-2.8h.52c.05.96.11,1.88.16,2.76s.1,1.68.13,2.4.05,1.3.05,1.76v9.14h-4.16Z"/>
</svg>