<svg width="220" height="57" viewBox="0 0 220 57" fill="none" xmlns="http://www.w3.org/2000/svg">
<path d="M8.80001 55.5071C7.04222 55.5071 5.50553 54.8557 4.201 53.5257C2.89648 52.1957 1.8794 50.2414 1.14975 47.6086C0.420102 45.0029 0.0331658 41.8 0 37.9729H4.3779C4.43318 39.7914 4.65428 41.3114 5.04122 42.5329C5.42815 43.7543 5.93668 44.6771 6.57789 45.2743C7.2191 45.8714 7.93769 46.17 8.74472 46.17C9.55176 46.17 10.2483 45.8986 10.8452 45.3286C11.4422 44.7586 11.9065 43.9443 12.2382 42.9129C12.5698 41.8814 12.7357 40.66 12.7357 39.3029C12.7357 38.0814 12.592 37.05 12.2824 36.2086C11.9839 35.3671 11.5528 34.6614 10.9889 34.0643C10.4251 33.4671 9.7397 32.9243 8.93266 32.4629L6.51156 30.97C4.65427 29.8571 3.19497 28.12 2.14472 25.7314C1.09447 23.3429 0.563821 20.1943 0.563821 16.2857C0.563821 13.0286 0.917591 10.1786 1.63618 7.73571C2.35477 5.29286 3.32764 3.39286 4.57688 2.03571C5.82613 0.678571 7.24122 0 8.83318 0C10.4251 0 11.8734 0.678571 13.0784 2.03571C14.2834 3.39286 15.2342 5.29286 15.9085 7.73571C16.5829 10.1786 16.9367 12.9471 16.9588 16.1229H12.603C12.5256 13.9514 12.1497 12.2686 11.4754 11.0743C10.801 9.88 9.90553 9.31 8.77789 9.31C8.02613 9.31 7.37387 9.58143 6.83216 10.0971C6.29045 10.64 5.88141 11.3729 5.60503 12.2957C5.32864 13.2186 5.18492 14.3043 5.18492 15.5257C5.18492 16.8557 5.35075 17.9686 5.67136 18.8371C5.99196 19.7057 6.43417 20.4386 6.96482 20.9814C7.50653 21.5243 8.08141 21.9857 8.68945 22.3386L10.6794 23.5329C11.608 24.0486 12.4593 24.7271 13.2663 25.5957C14.0734 26.4643 14.7588 27.5229 15.3668 28.7986C15.9638 30.0743 16.4281 31.5671 16.7598 33.3043C17.0915 35.0414 17.2573 37.05 17.2573 39.33C17.2573 42.5871 16.9256 45.4371 16.2513 47.8529C15.5879 50.2686 14.6151 52.1686 13.3437 53.4986C12.0724 54.8286 10.5467 55.48 8.76683 55.48L8.80001 55.5071Z" fill="white"/>
<path d="M25.0292 0.732864V54.72H20.5297V0.732864H25.0292Z" fill="white"/>
<path d="M29.009 54.72V0.732864H34.0281L40.9819 28.0386C41.3357 29.45 41.7005 30.97 42.0543 32.5986C42.4191 34.2543 42.795 36.0729 43.1708 38.0814C43.5467 40.09 43.9226 42.3429 44.2985 44.8671H43.8452C43.7789 42.8586 43.7126 40.7143 43.6573 38.4614C43.602 36.1814 43.5578 34.01 43.5136 31.9471C43.4804 29.8571 43.4583 28.12 43.4583 26.6543V0.760013H48.0573V54.7471H43.0271L36.7146 29.9657C36.2502 28.0929 35.8301 26.3014 35.4321 24.5371C35.0342 22.7729 34.6251 20.8457 34.205 18.7286C33.7849 16.6115 33.2653 14.0872 32.6794 11.1286H33.2543C33.3095 13.7343 33.3759 16.2314 33.4311 18.62C33.4864 21.0086 33.5417 23.18 33.5749 25.1343C33.608 27.0886 33.6301 28.6629 33.6301 29.9114V54.72H29.0311H29.009Z" fill="white"/>
<path d="M61.7879 55.4257C59.7317 55.4257 57.9297 54.3129 56.3819 52.0871C54.8342 49.8614 53.6181 46.6586 52.7558 42.5329C51.8935 38.4071 51.4513 33.4943 51.4513 27.7943C51.4513 22.0943 51.9045 16.9643 52.8111 12.8114C53.7176 8.65855 54.9447 5.50997 56.4814 3.3114C58.0292 1.11284 59.7648 0.0271301 61.6884 0.0271301C62.9266 0.0271301 64.0764 0.461409 65.1488 1.35712C66.2211 2.22569 67.1608 3.5014 68.001 5.10283C68.8302 6.7314 69.5156 8.6314 70.0352 10.8571C70.5658 13.0557 70.9085 15.5257 71.0633 18.1857H66.4864C66.3317 16.8828 66.1106 15.7157 65.8342 14.6843C65.5578 13.6529 65.2151 12.7843 64.8171 12.0514C64.4191 11.3185 63.9658 10.7757 63.4573 10.3957C62.9488 10.0157 62.3849 9.82572 61.7769 9.82572C60.6493 9.82572 59.6432 10.5314 58.7809 11.9157C57.9186 13.3 57.2442 15.3357 56.7578 17.9957C56.2714 20.6557 56.0392 23.8857 56.0392 27.7129C56.0392 31.54 56.2824 34.77 56.7578 37.43C57.2332 40.09 57.9075 42.1257 58.7699 43.5371C59.6322 44.9486 60.6603 45.6271 61.8432 45.6271C62.9045 45.6271 63.8111 45.1657 64.5739 44.2157C65.3367 43.2657 65.9116 41.9357 66.3206 40.1714C66.7297 38.4071 66.9287 36.3714 66.9287 34.0371L67.8683 34.3629H62.1417V25.9485H71.2955V32.68C71.2955 37.4029 70.8864 41.4743 70.0683 44.8671C69.2503 48.26 68.1337 50.8657 66.7075 52.6843C65.2814 54.5029 63.6452 55.4257 61.8101 55.4257H61.7879Z" fill="white"/>
<path d="M74.7226 54.72V0.732864H79.2221V45.5457H88.7075V54.72H74.7226Z" fill="white"/>
<path d="M91.8141 54.72V0.732864H106.529V9.90717H96.3136V22.9357H105.755V31.9471H96.3136V45.5457H106.551V54.72H91.8141Z" fill="white"/>
<path d="M123.764 54.72L116.058 0.732864H121.055L124.571 26.79C124.991 30.0743 125.422 33.6843 125.853 37.6471C126.284 41.61 126.738 45.9257 127.224 50.5943H126.251C126.727 45.8714 127.169 41.5286 127.578 37.62C127.987 33.7114 128.396 30.1014 128.805 26.8171L132.199 0.760013H137.174L129.645 54.7471H123.753L123.764 54.72Z" fill="white"/>
<path d="M144.382 0.732864V54.72H139.882V0.732864H144.382Z" fill="white"/>
<path d="M156.432 55.5071C154.674 55.5071 153.138 54.8557 151.833 53.5257C150.529 52.1957 149.512 50.2414 148.782 47.6086C148.052 44.9757 147.665 41.8 147.632 37.9729H152.01C152.065 39.7914 152.286 41.3114 152.673 42.5329C153.06 43.7543 153.569 44.6771 154.21 45.2743C154.851 45.8714 155.57 46.17 156.377 46.17C157.184 46.17 157.88 45.8986 158.477 45.3286C159.074 44.7586 159.539 43.9443 159.87 42.9129C160.202 41.8814 160.368 40.66 160.368 39.3029C160.368 38.0814 160.213 37.05 159.915 36.2086C159.616 35.3671 159.185 34.6614 158.621 34.0643C158.057 33.4671 157.372 32.9243 156.565 32.4629L154.144 30.97C152.286 29.8571 150.827 28.12 149.777 25.7314C148.727 23.3429 148.196 20.1943 148.196 16.2857C148.196 13.0286 148.55 10.1786 149.268 7.73571C149.987 5.29286 150.96 3.39286 152.209 2.03571C153.458 0.678571 154.873 0 156.465 0C158.057 0 159.506 0.678571 160.711 2.03571C161.916 3.39286 162.866 5.29286 163.541 7.73571C164.215 10.1786 164.569 12.9471 164.591 16.1229H160.235C160.158 13.9514 159.782 12.2686 159.108 11.0743C158.433 9.88 157.538 9.31 156.41 9.31C155.658 9.31 155.006 9.58143 154.464 10.0971C153.923 10.6129 153.514 11.3729 153.237 12.2957C152.961 13.2186 152.817 14.3043 152.817 15.5257C152.817 16.8557 152.983 17.9686 153.304 18.8371C153.624 19.7057 154.055 20.4386 154.597 20.9814C155.139 21.5243 155.714 21.9857 156.322 22.3386L158.312 23.5329C159.24 24.0486 160.091 24.7271 160.898 25.5957C161.706 26.4643 162.391 27.5229 162.999 28.7986C163.607 30.0743 164.06 31.5671 164.392 33.3043C164.724 35.0414 164.889 37.05 164.889 39.33C164.889 42.5871 164.558 45.4371 163.883 47.8529C163.209 50.2686 162.247 52.1686 160.976 53.4986C159.705 54.8286 158.179 55.48 156.399 55.48L156.432 55.5071Z" fill="white"/>
<path d="M172.661 0.732864V54.72H168.162V0.732864H172.661Z" fill="white"/>
<path d="M186.292 55.4257C184.358 55.4257 182.611 54.34 181.063 52.1686C179.516 49.9971 178.288 46.8486 177.393 42.7229C176.497 38.5971 176.044 33.6029 176.044 27.7671C176.044 21.9314 176.497 16.8828 177.393 12.7571C178.288 8.6314 179.516 5.45572 181.063 3.28429C182.611 1.11285 184.358 0.0271301 186.292 0.0271301C188.227 0.0271301 189.985 1.11285 191.533 3.28429C193.08 5.45572 194.296 8.60426 195.203 12.7571C196.11 16.91 196.552 21.9043 196.552 27.7671C196.552 33.63 196.098 38.5971 195.203 42.7229C194.308 46.8486 193.08 49.9971 191.533 52.1686C189.985 54.34 188.238 55.4257 186.292 55.4257ZM186.292 45.6271C187.431 45.6271 188.426 44.9486 189.277 43.5914C190.129 42.2343 190.792 40.1986 191.267 37.5386C191.743 34.8786 191.975 31.6214 191.975 27.7671C191.975 23.9129 191.743 20.6014 191.267 17.9414C190.792 15.2814 190.129 13.2457 189.277 11.8885C188.426 10.5314 187.431 9.85283 186.292 9.85283C185.154 9.85283 184.17 10.5314 183.308 11.9157C182.445 13.3 181.793 15.3085 181.318 17.9957C180.842 20.6828 180.61 23.94 180.61 27.7943C180.61 31.6486 180.842 34.8786 181.318 37.5386C181.793 40.1986 182.456 42.2071 183.308 43.5914C184.159 44.9757 185.154 45.6543 186.292 45.6543V45.6271Z" fill="white"/>
<path d="M199.924 54.72V0.732864H204.943L211.896 28.0386C212.25 29.45 212.604 30.97 212.969 32.5986C213.334 34.2271 213.698 36.0729 214.085 38.0814C214.472 40.09 214.837 42.3429 215.213 44.8671H214.76C214.693 42.8586 214.627 40.7143 214.572 38.4614C214.517 36.2086 214.472 34.01 214.428 31.9471C214.384 29.8843 214.373 28.12 214.373 26.6543V0.760013H218.972V54.7471H213.942L207.629 29.9657C207.165 28.0929 206.745 26.3014 206.347 24.5371C205.949 22.7729 205.54 20.8457 205.12 18.7286C204.699 16.6115 204.18 14.0872 203.594 11.1286H204.169C204.224 13.7343 204.29 16.2314 204.346 18.62C204.401 21.0086 204.456 23.18 204.489 25.1343C204.523 27.0886 204.545 28.6629 204.545 29.9114V54.72H199.946H199.924Z" fill="white"/>
</svg>
