<svg width="199" height="57" viewBox="0 0 199 57" fill="none" xmlns="http://www.w3.org/2000/svg">
<path d="M7.96001 55.5071C6.37001 55.5071 4.98 54.8557 3.8 53.5257C2.62 52.1957 1.7 50.2414 1.04 47.6086C0.380001 45.0029 0.03 41.8 0 37.9729H3.96001C4.01001 39.7914 4.21001 41.3114 4.56001 42.5329C4.91001 43.7543 5.37 44.6771 5.95 45.2743C6.53 45.8714 7.18 46.17 7.91 46.17C8.64 46.17 9.27001 45.8986 9.81001 45.3286C10.35 44.7586 10.77 43.9443 11.07 42.9129C11.37 41.8814 11.52 40.66 11.52 39.3029C11.52 38.0814 11.39 37.05 11.11 36.2086C10.84 35.3671 10.45 34.6614 9.94 34.0643C9.43 33.4671 8.81 32.9243 8.08 32.4629L5.89 30.97C4.21 29.8571 2.89 28.12 1.94 25.7314C0.990002 23.3429 0.510002 20.1943 0.510002 16.2857C0.510002 13.0286 0.830003 10.1786 1.48 7.73571C2.13 5.29286 3.01 3.39286 4.14 2.03571C5.27 0.678571 6.55001 0 7.99001 0C9.43001 0 10.74 0.678571 11.83 2.03571C12.92 3.39286 13.78 5.29286 14.39 7.73571C15 10.1786 15.32 12.9471 15.34 16.1229H11.4C11.33 13.9514 10.99 12.2686 10.38 11.0743C9.77 9.88 8.96 9.31 7.94 9.31C7.26 9.31 6.67 9.58143 6.18 10.0971C5.69 10.64 5.32 11.3729 5.07 12.2957C4.82 13.2186 4.69 14.3043 4.69 15.5257C4.69 16.8557 4.84 17.9686 5.13 18.8371C5.42 19.7057 5.82 20.4386 6.3 20.9814C6.79 21.5243 7.31 21.9857 7.86 22.3386L9.66 23.5329C10.5 24.0486 11.27 24.7271 12 25.5957C12.73 26.4643 13.35 27.5229 13.9 28.7986C14.44 30.0743 14.86 31.5671 15.16 33.3043C15.46 35.0414 15.61 37.05 15.61 39.33C15.61 42.5871 15.31 45.4371 14.7 47.8529C14.1 50.2686 13.22 52.1686 12.07 53.4986C10.92 54.8286 9.54 55.48 7.93 55.48L7.96001 55.5071Z" fill="white"/>
<path d="M22.64 0.732864V54.72H18.57V0.732864H22.64Z" fill="white"/>
<path d="M26.24 54.72V0.732864H30.78L37.07 28.0386C37.39 29.45 37.72 30.97 38.04 32.5986C38.37 34.2543 38.71 36.0729 39.05 38.0814C39.39 40.09 39.73 42.3429 40.07 44.8671H39.66C39.6 42.8586 39.54 40.7143 39.49 38.4614C39.44 36.1814 39.4 34.01 39.36 31.9471C39.33 29.8571 39.31 28.12 39.31 26.6543V0.760013H43.47V54.7471H38.92L33.21 29.9657C32.79 28.0929 32.41 26.3014 32.05 24.5371C31.69 22.7729 31.32 20.8457 30.94 18.7286C30.56 16.6115 30.09 14.0872 29.56 11.1286H30.08C30.13 13.7343 30.19 16.2314 30.24 18.62C30.29 21.0086 30.34 23.18 30.37 25.1343C30.4 27.0886 30.42 28.6629 30.42 29.9114V54.72H26.26H26.24Z" fill="white"/>
<path d="M55.89 55.4257C54.03 55.4257 52.4 54.3129 51 52.0871C49.6 49.8614 48.5 46.6586 47.72 42.5329C46.94 38.4071 46.54 33.4943 46.54 27.7943C46.54 22.0943 46.95 16.9643 47.77 12.8114C48.59 8.65855 49.7 5.50997 51.09 3.3114C52.49 1.11284 54.06 0.0271301 55.8 0.0271301C56.92 0.0271301 57.96 0.461409 58.93 1.35712C59.9 2.22569 60.75 3.5014 61.51 5.10283C62.26 6.7314 62.88 8.6314 63.35 10.8571C63.83 13.0557 64.14 15.5257 64.28 18.1857H60.14C60 16.8828 59.8 15.7157 59.55 14.6843C59.3 13.6529 58.99 12.7843 58.63 12.0514C58.27 11.3185 57.86 10.7757 57.4 10.3957C56.94 10.0157 56.43 9.82572 55.88 9.82572C54.86 9.82572 53.95 10.5314 53.17 11.9157C52.39 13.3 51.78 15.3357 51.34 17.9957C50.9 20.6557 50.69 23.8857 50.69 27.7129C50.69 31.54 50.91 34.77 51.34 37.43C51.77 40.09 52.38 42.1257 53.16 43.5371C53.94 44.9486 54.87 45.6271 55.94 45.6271C56.9 45.6271 57.72 45.1657 58.41 44.2157C59.1 43.2657 59.62 41.9357 59.99 40.1714C60.36 38.4071 60.54 36.3714 60.54 34.0371L61.39 34.3629H56.21V25.9485H64.49V32.68C64.49 37.4029 64.12 41.4743 63.38 44.8671C62.64 48.26 61.63 50.8657 60.34 52.6843C59.05 54.5029 57.57 55.4257 55.91 55.4257H55.89Z" fill="white"/>
<path d="M67.59 54.72V0.732864H71.66V45.5457H80.24V54.72H67.59Z" fill="white"/>
<path d="M83.05 54.72V0.732864H96.36V9.90717H87.12V22.9357H95.66V31.9471H87.12V45.5457H96.38V54.72H83.05Z" fill="white"/>
<path d="M111.95 54.72L104.98 0.732864H109.5L112.68 26.79C113.06 30.0743 113.45 33.6843 113.84 37.6471C114.23 41.61 114.64 45.9257 115.08 50.5943H114.2C114.63 45.8714 115.03 41.5286 115.4 37.62C115.77 33.7114 116.14 30.1014 116.51 26.8171L119.58 0.760013H124.08L117.27 54.7471H111.94L111.95 54.72Z" fill="white"/>
<path d="M130.6 0.732864V54.72H126.53V0.732864H130.6Z" fill="white"/>
<path d="M141.5 55.5071C139.91 55.5071 138.52 54.8557 137.34 53.5257C136.16 52.1957 135.24 50.2414 134.58 47.6086C133.92 44.9757 133.57 41.8 133.54 37.9729H137.5C137.55 39.7914 137.75 41.3114 138.1 42.5329C138.45 43.7543 138.91 44.6771 139.49 45.2743C140.07 45.8714 140.72 46.17 141.45 46.17C142.18 46.17 142.81 45.8986 143.35 45.3286C143.89 44.7586 144.31 43.9443 144.61 42.9129C144.91 41.8814 145.06 40.66 145.06 39.3029C145.06 38.0814 144.92 37.05 144.65 36.2086C144.38 35.3671 143.99 34.6614 143.48 34.0643C142.97 33.4671 142.35 32.9243 141.62 32.4629L139.43 30.97C137.75 29.8571 136.43 28.12 135.48 25.7314C134.53 23.3429 134.05 20.1943 134.05 16.2857C134.05 13.0286 134.37 10.1786 135.02 7.73571C135.67 5.29286 136.55 3.39286 137.68 2.03571C138.81 0.678571 140.09 0 141.53 0C142.97 0 144.28 0.678571 145.37 2.03571C146.46 3.39286 147.32 5.29286 147.93 7.73571C148.54 10.1786 148.86 12.9471 148.88 16.1229H144.94C144.87 13.9514 144.53 12.2686 143.92 11.0743C143.31 9.88 142.5 9.31 141.48 9.31C140.8 9.31 140.21 9.58143 139.72 10.0971C139.23 10.6129 138.86 11.3729 138.61 12.2957C138.36 13.2186 138.23 14.3043 138.23 15.5257C138.23 16.8557 138.38 17.9686 138.67 18.8371C138.96 19.7057 139.35 20.4386 139.84 20.9814C140.33 21.5243 140.85 21.9857 141.4 22.3386L143.2 23.5329C144.04 24.0486 144.81 24.7271 145.54 25.5957C146.27 26.4643 146.89 27.5229 147.44 28.7986C147.99 30.0743 148.4 31.5671 148.7 33.3043C149 35.0414 149.15 37.05 149.15 39.33C149.15 42.5871 148.85 45.4371 148.24 47.8529C147.63 50.2686 146.76 52.1686 145.61 53.4986C144.46 54.8286 143.08 55.48 141.47 55.48L141.5 55.5071Z" fill="white"/>
<path d="M156.18 0.732864V54.72H152.11V0.732864H156.18Z" fill="white"/>
<path d="M168.51 55.4257C166.76 55.4257 165.18 54.34 163.78 52.1686C162.38 49.9971 161.27 46.8486 160.46 42.7229C159.65 38.5971 159.24 33.6029 159.24 27.7671C159.24 21.9314 159.65 16.8828 160.46 12.7571C161.27 8.6314 162.38 5.45572 163.78 3.28429C165.18 1.11285 166.76 0.0271301 168.51 0.0271301C170.26 0.0271301 171.85 1.11285 173.25 3.28429C174.65 5.45572 175.75 8.60426 176.57 12.7571C177.39 16.91 177.79 21.9043 177.79 27.7671C177.79 33.63 177.38 38.5971 176.57 42.7229C175.76 46.8486 174.65 49.9971 173.25 52.1686C171.85 54.34 170.27 55.4257 168.51 55.4257ZM168.51 45.6271C169.54 45.6271 170.44 44.9486 171.21 43.5914C171.98 42.2343 172.58 40.1986 173.01 37.5386C173.44 34.8786 173.65 31.6214 173.65 27.7671C173.65 23.9129 173.44 20.6014 173.01 17.9414C172.58 15.2814 171.98 13.2457 171.21 11.8885C170.44 10.5314 169.54 9.85283 168.51 9.85283C167.48 9.85283 166.59 10.5314 165.81 11.9157C165.03 13.3 164.44 15.3085 164.01 17.9957C163.58 20.6828 163.37 23.94 163.37 27.7943C163.37 31.6486 163.58 34.8786 164.01 37.5386C164.44 40.1986 165.04 42.2071 165.81 43.5914C166.58 44.9757 167.48 45.6543 168.51 45.6543V45.6271Z" fill="white"/>
<path d="M180.84 54.72V0.732864H185.38L191.67 28.0386C191.99 29.45 192.31 30.97 192.64 32.5986C192.97 34.2271 193.3 36.0729 193.65 38.0814C194 40.09 194.33 42.3429 194.67 44.8671H194.26C194.2 42.8586 194.14 40.7143 194.09 38.4614C194.04 36.2086 194 34.01 193.96 31.9471C193.92 29.8843 193.91 28.12 193.91 26.6543V0.760013H198.07V54.7471H193.52L187.81 29.9657C187.39 28.0929 187.01 26.3014 186.65 24.5371C186.29 22.7729 185.92 20.8457 185.54 18.7286C185.16 16.6115 184.69 14.0872 184.16 11.1286H184.68C184.73 13.7343 184.79 16.2314 184.84 18.62C184.89 21.0086 184.94 23.18 184.97 25.1343C185 27.0886 185.02 28.6629 185.02 29.9114V54.72H180.86H180.84Z" fill="white"/>
</svg>
