<svg width="278" height="65" viewBox="0 0 278 65" fill="none" xmlns="http://www.w3.org/2000/svg">
<path d="M55.73 0H18.58L0 32.17L18.58 64.34H55.73L74.31 32.17L55.73 0Z" fill="#089DD9"/>
<path d="M27.992 40.24C26.712 40.24 25.456 40.024 24.224 39.592C22.992 39.144 21.872 38.464 20.864 37.552L23.048 34.936C23.816 35.56 24.6 36.056 25.4 36.424C26.216 36.792 27.104 36.976 28.064 36.976C28.832 36.976 29.424 36.84 29.84 36.568C30.272 36.28 30.488 35.888 30.488 35.392V35.344C30.488 35.104 30.44 34.896 30.344 34.72C30.264 34.528 30.096 34.352 29.84 34.192C29.6 34.032 29.256 33.872 28.808 33.712C28.376 33.552 27.808 33.384 27.104 33.208C26.256 33 25.488 32.768 24.8 32.512C24.112 32.256 23.528 31.944 23.048 31.576C22.568 31.192 22.192 30.72 21.92 30.16C21.664 29.6 21.536 28.904 21.536 28.072V28.024C21.536 27.256 21.68 26.568 21.968 25.96C22.256 25.336 22.656 24.8 23.168 24.352C23.696 23.904 24.32 23.56 25.04 23.32C25.76 23.08 26.552 22.96 27.416 22.96C28.648 22.96 29.776 23.144 30.8 23.512C31.84 23.88 32.792 24.408 33.656 25.096L31.736 27.88C30.984 27.368 30.248 26.968 29.528 26.68C28.808 26.376 28.088 26.224 27.368 26.224C26.648 26.224 26.104 26.368 25.736 26.656C25.384 26.928 25.208 27.272 25.208 27.688V27.736C25.208 28.008 25.256 28.248 25.352 28.456C25.464 28.648 25.656 28.824 25.928 28.984C26.2 29.144 26.568 29.296 27.032 29.44C27.512 29.584 28.112 29.752 28.832 29.944C29.68 30.168 30.432 30.424 31.088 30.712C31.76 30.984 32.32 31.32 32.768 31.72C33.232 32.104 33.576 32.56 33.8 33.088C34.04 33.616 34.16 34.248 34.16 34.984V35.032C34.16 35.864 34.008 36.608 33.704 37.264C33.4 37.904 32.976 38.448 32.432 38.896C31.888 39.328 31.24 39.664 30.488 39.904C29.736 40.128 28.904 40.24 27.992 40.24ZM45.5756 36.88C46.3116 36.88 46.9916 36.744 47.6156 36.472C48.2396 36.2 48.7676 35.824 49.1996 35.344C49.6476 34.864 49.9916 34.312 50.2316 33.688C50.4876 33.048 50.6156 32.368 50.6156 31.648V31.6C50.6156 30.88 50.4876 30.2 50.2316 29.56C49.9916 28.92 49.6396 28.36 49.1756 27.88C48.7276 27.4 48.1916 27.024 47.5676 26.752C46.9436 26.464 46.2636 26.32 45.5276 26.32C44.7756 26.32 44.0876 26.456 43.4636 26.728C42.8556 27 42.3276 27.376 41.8796 27.856C41.4476 28.336 41.1036 28.896 40.8476 29.536C40.6076 30.16 40.4876 30.832 40.4876 31.552V31.6C40.4876 32.32 40.6076 33 40.8476 33.64C41.1036 34.28 41.4556 34.84 41.9036 35.32C42.3676 35.8 42.9036 36.184 43.5116 36.472C44.1356 36.744 44.8236 36.88 45.5756 36.88ZM45.5276 40.288C44.2316 40.288 43.0396 40.064 41.9516 39.616C40.8636 39.152 39.9196 38.536 39.1196 37.768C38.3356 36.984 37.7196 36.072 37.2716 35.032C36.8396 33.976 36.6236 32.848 36.6236 31.648V31.6C36.6236 30.4 36.8476 29.28 37.2956 28.24C37.7436 27.184 38.3596 26.264 39.1436 25.48C39.9436 24.68 40.8876 24.056 41.9756 23.608C43.0796 23.144 44.2796 22.912 45.5756 22.912C46.8716 22.912 48.0636 23.144 49.1516 23.608C50.2396 24.056 51.1756 24.672 51.9596 25.456C52.7596 26.224 53.3756 27.136 53.8076 28.192C54.2556 29.232 54.4796 30.352 54.4796 31.552V31.6C54.4796 32.8 54.2556 33.928 53.8076 34.984C53.3596 36.024 52.7356 36.944 51.9356 37.744C51.1516 38.528 50.2076 39.152 49.1036 39.616C48.0156 40.064 46.8236 40.288 45.5276 40.288Z" fill="white"/>
<path d="M94.7829 32.6682L96.738 32.4973C96.8306 33.2807 97.0442 33.9253 97.379 34.431C97.7209 34.9296 98.2479 35.3356 98.9602 35.6489C99.6724 35.9552 100.474 36.1083 101.364 36.1083C102.155 36.1083 102.853 35.9908 103.458 35.7558C104.063 35.5207 104.512 35.2002 104.804 34.7943C105.103 34.3812 105.253 33.9324 105.253 33.4481C105.253 32.9567 105.11 32.5293 104.825 32.1661C104.541 31.7957 104.07 31.4859 103.415 31.2366C102.995 31.0728 102.066 30.82 100.627 30.4781C99.1881 30.1291 98.1803 29.8015 97.6033 29.4952C96.8555 29.1035 96.2964 28.6191 95.926 28.0422C95.5628 27.4582 95.3812 26.8065 95.3812 26.0871C95.3812 25.2965 95.6055 24.5594 96.0542 23.8756C96.5029 23.1848 97.1582 22.6613 98.02 22.3051C98.8818 21.949 99.8398 21.771 100.894 21.771C102.055 21.771 103.077 21.9597 103.96 22.3372C104.85 22.7076 105.534 23.256 106.011 23.9825C106.489 24.7089 106.745 25.5316 106.781 26.4504L104.793 26.5999C104.687 25.6099 104.323 24.8621 103.704 24.3564C103.091 23.8507 102.183 23.5979 100.979 23.5979C99.7258 23.5979 98.8106 23.8293 98.2337 24.2923C97.6639 24.7481 97.379 25.3001 97.379 25.9482C97.379 26.5109 97.582 26.9739 97.988 27.3371C98.3868 27.7004 99.4267 28.0743 101.108 28.4589C102.796 28.8364 103.953 29.1676 104.58 29.4525C105.491 29.8727 106.164 30.4069 106.599 31.055C107.033 31.696 107.251 32.4367 107.251 33.2772C107.251 34.1105 107.012 34.8975 106.535 35.6383C106.058 36.3719 105.37 36.9452 104.473 37.3583C103.583 37.7643 102.578 37.9673 101.46 37.9673C100.043 37.9673 98.8533 37.7607 97.8918 37.3476C96.9374 36.9345 96.186 36.3149 95.6376 35.4887C95.0963 34.6554 94.8114 33.7152 94.7829 32.6682ZM110.018 37.7002V22.038H113.137L116.844 33.1276C117.186 34.1604 117.436 34.9331 117.592 35.446C117.77 34.8762 118.048 34.0393 118.426 32.9353L122.176 22.038H124.964V37.7002H122.966V24.5914L118.415 37.7002H116.545L112.016 24.3671V37.7002H110.018ZM127.678 30.0721C127.678 27.4724 128.376 25.439 129.772 23.9718C131.168 22.4974 132.97 21.7603 135.178 21.7603C136.623 21.7603 137.927 22.1057 139.088 22.7966C140.249 23.4875 141.132 24.4525 141.737 25.6918C142.35 26.924 142.656 28.3236 142.656 29.8905C142.656 31.4788 142.336 32.8997 141.695 34.1532C141.054 35.4068 140.145 36.3576 138.97 37.0058C137.795 37.6468 136.527 37.9673 135.167 37.9673C133.693 37.9673 132.375 37.6112 131.214 36.8989C130.053 36.1867 129.173 35.2145 128.575 33.9823C127.977 32.7501 127.678 31.4467 127.678 30.0721ZM129.814 30.1042C129.814 31.9916 130.32 33.4802 131.331 34.5699C132.35 35.6525 133.625 36.1938 135.156 36.1938C136.716 36.1938 137.998 35.6454 139.002 34.5485C140.014 33.4517 140.519 31.8954 140.519 29.8798C140.519 28.6049 140.302 27.4938 139.868 26.5465C139.44 25.5921 138.81 24.855 137.977 24.335C137.15 23.808 136.221 23.5444 135.188 23.5444C133.721 23.5444 132.457 24.0501 131.396 25.0615C130.341 26.0658 129.814 27.7466 129.814 30.1042ZM144.707 30.0721C144.707 27.4724 145.405 25.439 146.801 23.9718C148.197 22.4974 149.999 21.7603 152.207 21.7603C153.653 21.7603 154.956 22.1057 156.117 22.7966C157.278 23.4875 158.162 24.4525 158.767 25.6918C159.379 26.924 159.686 28.3236 159.686 29.8905C159.686 31.4788 159.365 32.8997 158.724 34.1532C158.083 35.4068 157.175 36.3576 156 37.0058C154.825 37.6468 153.557 37.9673 152.197 37.9673C150.722 37.9673 149.405 37.6112 148.244 36.8989C147.083 36.1867 146.203 35.2145 145.605 33.9823C145.006 32.7501 144.707 31.4467 144.707 30.0721ZM146.844 30.1042C146.844 31.9916 147.35 33.4802 148.361 34.5699C149.38 35.6525 150.655 36.1938 152.186 36.1938C153.746 36.1938 155.028 35.6454 156.032 34.5485C157.043 33.4517 157.549 31.8954 157.549 29.8798C157.549 28.6049 157.332 27.4938 156.897 26.5465C156.47 25.5921 155.84 24.855 155.006 24.335C154.18 23.808 153.251 23.5444 152.218 23.5444C150.751 23.5444 149.486 24.0501 148.425 25.0615C147.371 26.0658 146.844 27.7466 146.844 30.1042ZM166.352 37.7002V23.8863H161.192V22.038H173.606V23.8863H168.425V37.7002H166.352ZM175.807 37.7002V22.038H177.88V28.4696H186.021V22.038H188.093V37.7002H186.021V30.3178H177.88V37.7002H175.807ZM196.907 29.9653C196.907 28.3699 197.146 27.0308 197.623 25.9482C197.979 25.1505 198.464 24.4347 199.076 23.8008C199.696 23.1669 200.372 22.6969 201.106 22.3906C202.082 21.9775 203.207 21.771 204.482 21.771C206.79 21.771 208.634 22.4868 210.016 23.9184C211.405 25.35 212.099 27.3407 212.099 29.8905C212.099 32.4189 211.412 34.399 210.037 35.8306C208.663 37.255 206.825 37.9673 204.525 37.9673C202.196 37.9673 200.344 37.2586 198.969 35.8413C197.595 34.4168 196.907 32.4581 196.907 29.9653ZM200.166 29.8584C200.166 31.6319 200.575 32.978 201.394 33.8968C202.214 34.8085 203.253 35.2643 204.514 35.2643C205.775 35.2643 206.807 34.8121 207.612 33.9075C208.424 32.9959 208.83 31.6319 208.83 29.8157C208.83 28.0209 208.435 26.6818 207.644 25.7987C206.861 24.9155 205.817 24.4739 204.514 24.4739C203.211 24.4739 202.16 24.9226 201.362 25.82C200.565 26.7103 200.166 28.0565 200.166 29.8584ZM214.578 37.7002V22.038H219.653C221.576 22.038 222.829 22.1164 223.413 22.2731C224.311 22.5081 225.062 23.0209 225.668 23.8115C226.273 24.595 226.576 25.6099 226.576 26.8563C226.576 27.8179 226.401 28.6263 226.052 29.2815C225.703 29.9368 225.258 30.4532 224.717 30.8306C224.183 31.201 223.638 31.4467 223.082 31.5678C222.327 31.7174 221.234 31.7922 219.802 31.7922H217.74V37.7002H214.578ZM217.74 24.6876V29.132H219.471C220.718 29.132 221.551 29.05 221.971 28.8862C222.391 28.7224 222.719 28.466 222.954 28.117C223.196 27.768 223.317 27.362 223.317 26.8991C223.317 26.3293 223.15 25.8592 222.815 25.4888C222.48 25.1185 222.057 24.887 221.544 24.7944C221.166 24.7232 220.408 24.6876 219.268 24.6876H217.74ZM232.697 37.7002V24.6876H228.05V22.038H240.496V24.6876H235.86V37.7002H232.697ZM242.451 37.7002V22.038H245.614V37.7002H242.451ZM258.659 31.9417L261.725 32.9139C261.255 34.6233 260.471 35.8947 259.374 36.728C258.285 37.5542 256.899 37.9673 255.218 37.9673C253.139 37.9673 251.429 37.2586 250.09 35.8413C248.751 34.4168 248.082 32.4724 248.082 30.008C248.082 27.4012 248.755 25.3785 250.101 23.9397C251.447 22.4939 253.217 21.771 255.411 21.771C257.327 21.771 258.883 22.3372 260.079 23.4696C260.792 24.1392 261.326 25.1007 261.682 26.3542L258.552 27.1021C258.367 26.2901 257.978 25.6491 257.387 25.179C256.803 24.7089 256.091 24.4739 255.25 24.4739C254.09 24.4739 253.146 24.8906 252.419 25.7239C251.7 26.5572 251.34 27.9069 251.34 29.773C251.34 31.753 251.696 33.1632 252.409 34.0037C253.121 34.8441 254.047 35.2643 255.186 35.2643C256.027 35.2643 256.75 34.9972 257.355 34.4631C257.961 33.9289 258.395 33.0884 258.659 31.9417ZM263.648 32.6041L266.725 32.305C266.91 33.3377 267.284 34.0963 267.846 34.5806C268.416 35.0649 269.182 35.3071 270.143 35.3071C271.162 35.3071 271.928 35.0934 272.44 34.6661C272.96 34.2316 273.22 33.7259 273.22 33.149C273.22 32.7786 273.11 32.4652 272.889 32.2088C272.675 31.9453 272.298 31.7174 271.757 31.5251C271.386 31.3969 270.542 31.169 269.225 30.8413C267.529 30.4211 266.34 29.9047 265.656 29.2922C264.695 28.4304 264.214 27.3798 264.214 26.1405C264.214 25.3428 264.438 24.5985 264.887 23.9077C265.343 23.2097 265.995 22.6791 266.842 22.3158C267.697 21.9526 268.726 21.771 269.93 21.771C271.895 21.771 273.373 22.2019 274.363 23.0637C275.361 23.9255 275.884 25.0757 275.934 26.5145L272.772 26.6534C272.636 25.8485 272.344 25.2716 271.895 24.9226C271.454 24.5665 270.788 24.3884 269.898 24.3884C268.979 24.3884 268.259 24.5772 267.74 24.9547C267.405 25.1968 267.237 25.5209 267.237 25.9269C267.237 26.2972 267.394 26.6142 267.708 26.8777C268.106 27.2125 269.075 27.5615 270.613 27.9247C272.152 28.2879 273.288 28.6654 274.022 29.0572C274.762 29.4418 275.339 29.9724 275.752 30.649C276.172 31.3185 276.383 32.1483 276.383 33.1383C276.383 34.0357 276.133 34.8762 275.635 35.6596C275.136 36.4431 274.431 37.0271 273.519 37.4117C272.608 37.7892 271.472 37.978 270.111 37.978C268.131 37.978 266.611 37.5221 265.549 36.6105C264.488 35.6917 263.854 34.3562 263.648 32.6041Z" fill="#395997"/>
<path d="M227.6 43.0104C227.36 43.0104 227.17 42.8204 227.17 42.5804C227.17 42.3404 227.36 42.1504 227.6 42.1504C227.84 42.1504 228.03 42.3404 228.03 42.5804C228.03 42.8204 227.84 43.0104 227.6 43.0104Z" fill="#089DD9"/>
<path d="M226.12 47.1304C226.528 47.1304 226.86 46.7991 226.86 46.3904C226.86 45.9817 226.528 45.6504 226.12 45.6504C225.711 45.6504 225.38 45.9817 225.38 46.3904C225.38 46.7991 225.711 47.1304 226.12 47.1304Z" fill="#089DD9"/>
<path d="M223.78 50.7003C224.315 50.7003 224.75 50.2659 224.75 49.7302C224.75 49.1945 224.315 48.7603 223.78 48.7603C223.244 48.7603 222.81 49.1945 222.81 49.7302C222.81 50.2659 223.244 50.7003 223.78 50.7003Z" fill="#089DD9"/>
<path d="M220.75 53.6203C221.385 53.6203 221.9 53.1054 221.9 52.4703C221.9 51.8351 221.385 51.3203 220.75 51.3203C220.115 51.3203 219.6 51.8351 219.6 52.4703C219.6 53.1054 220.115 53.6203 220.75 53.6203Z" fill="#089DD9"/>
<path d="M217.19 55.73C217.886 55.73 218.45 55.1658 218.45 54.47C218.45 53.7741 217.886 53.21 217.19 53.21C216.494 53.21 215.93 53.7741 215.93 54.47C215.93 55.1658 216.494 55.73 217.19 55.73Z" fill="#089DD9"/>
<path d="M213.29 57.0203C214.025 57.0203 214.62 56.4249 214.62 55.6904C214.62 54.9558 214.025 54.3604 213.29 54.3604C212.555 54.3604 211.96 54.9558 211.96 55.6904C211.96 56.4249 212.555 57.0203 213.29 57.0203Z" fill="#089DD9"/>
<path d="M209.22 57.4402C208.47 57.4402 207.86 56.8302 207.86 56.0802C207.86 55.3302 208.47 54.7202 209.22 54.7202C209.97 54.7202 210.58 55.3302 210.58 56.0802C210.58 56.8302 209.97 57.4402 209.22 57.4402Z" fill="#089DD9"/>
<path d="M205.15 56.9603C205.884 56.9603 206.48 56.3648 206.48 55.6303C206.48 54.8958 205.884 54.3003 205.15 54.3003C204.415 54.3003 203.82 54.8958 203.82 55.6303C203.82 56.3648 204.415 56.9603 205.15 56.9603Z" fill="#089DD9"/>
<path d="M201.27 55.6201C200.57 55.6201 200.01 55.0601 200.01 54.3601C200.01 53.6601 200.57 53.1001 201.27 53.1001C201.97 53.1001 202.53 53.6601 202.53 54.3601C202.53 55.0601 201.97 55.6201 201.27 55.6201Z" fill="#089DD9"/>
<path d="M197.74 53.4402C197.11 53.4402 196.59 52.9302 196.59 52.2902C196.59 51.6502 197.1 51.1401 197.74 51.1401C198.38 51.1401 198.89 51.6502 198.89 52.2902C198.89 52.9302 198.38 53.4402 197.74 53.4402Z" fill="#089DD9"/>
<path d="M194.75 50.4703C194.22 50.4703 193.79 50.0403 193.79 49.5103C193.79 48.9803 194.22 48.5503 194.75 48.5503C195.28 48.5503 195.71 48.9803 195.71 49.5103C195.71 50.0403 195.28 50.4703 194.75 50.4703Z" fill="#089DD9"/>
<path d="M192.47 46.8404C192.867 46.8404 193.19 46.5181 193.19 46.1204C193.19 45.7228 192.867 45.4004 192.47 45.4004C192.072 45.4004 191.75 45.7228 191.75 46.1204C191.75 46.5181 192.072 46.8404 192.47 46.8404Z" fill="#089DD9"/>
<path d="M191.06 42.6902C191.281 42.6902 191.46 42.5111 191.46 42.2902C191.46 42.0692 191.281 41.8901 191.06 41.8901C190.839 41.8901 190.66 42.0692 190.66 42.2902C190.66 42.5111 190.839 42.6902 191.06 42.6902Z" fill="#089DD9"/>
<path d="M159.87 19.4601C159.63 19.4601 159.44 19.2701 159.44 19.0301C159.44 18.7901 159.63 18.6001 159.87 18.6001C160.11 18.6001 160.3 18.7901 160.3 19.0301C160.3 19.2701 160.11 19.4601 159.87 19.4601Z" fill="#089DD9"/>
<path d="M161.35 15.96C161.759 15.96 162.09 15.6287 162.09 15.22C162.09 14.8113 161.759 14.48 161.35 14.48C160.941 14.48 160.61 14.8113 160.61 15.22C160.61 15.6287 160.941 15.96 161.35 15.96Z" fill="#089DD9"/>
<path d="M163.69 12.8502C164.226 12.8502 164.66 12.4159 164.66 11.8802C164.66 11.3445 164.226 10.9102 163.69 10.9102C163.154 10.9102 162.72 11.3445 162.72 11.8802C162.72 12.4159 163.154 12.8502 163.69 12.8502Z" fill="#089DD9"/>
<path d="M166.72 10.3C166.08 10.3 165.57 9.77996 165.57 9.14996C165.57 8.51996 166.09 8 166.72 8C167.35 8 167.87 8.51996 167.87 9.14996C167.87 9.77996 167.35 10.3 166.72 10.3Z" fill="#089DD9"/>
<path d="M170.28 8.40033C170.976 8.40033 171.54 7.8362 171.54 7.14032C171.54 6.44444 170.976 5.88037 170.28 5.88037C169.584 5.88037 169.02 6.44444 169.02 7.14032C169.02 7.8362 169.584 8.40033 170.28 8.40033Z" fill="#089DD9"/>
<path d="M174.18 7.25037C173.45 7.25037 172.85 6.66035 172.85 5.92035C172.85 5.18035 173.44 4.59033 174.18 4.59033C174.92 4.59033 175.51 5.18035 175.51 5.92035C175.51 6.66035 174.92 7.25037 174.18 7.25037Z" fill="#089DD9"/>
<path d="M178.25 6.90015C177.5 6.90015 176.89 6.29016 176.89 5.54016C176.89 4.79016 177.5 4.18018 178.25 4.18018C179 4.18018 179.61 4.79016 179.61 5.54016C179.61 6.29016 179 6.90015 178.25 6.90015Z" fill="#089DD9"/>
<path d="M182.32 7.31042C183.055 7.31042 183.65 6.71495 183.65 5.98041C183.65 5.24587 183.055 4.65039 182.32 4.65039C181.586 4.65039 180.99 5.24587 180.99 5.98041C180.99 6.71495 181.586 7.31042 182.32 7.31042Z" fill="#089DD9"/>
<path d="M186.2 8.51025C185.5 8.51025 184.94 7.95024 184.94 7.25024C184.94 6.55024 185.5 5.99023 186.2 5.99023C186.9 5.99023 187.46 6.55024 187.46 7.25024C187.46 7.95024 186.9 8.51025 186.2 8.51025Z" fill="#089DD9"/>
<path d="M189.73 10.4699C189.1 10.4699 188.58 9.95995 188.58 9.31995C188.58 8.67995 189.09 8.16992 189.73 8.16992C190.37 8.16992 190.88 8.67995 190.88 9.31995C190.88 9.95995 190.37 10.4699 189.73 10.4699Z" fill="#089DD9"/>
<path d="M192.72 13.0602C192.19 13.0602 191.76 12.6302 191.76 12.1002C191.76 11.5702 192.19 11.1401 192.72 11.1401C193.25 11.1401 193.68 11.5702 193.68 12.1002C193.68 12.6302 193.25 13.0602 192.72 13.0602Z" fill="#089DD9"/>
<path d="M195 16.21C195.398 16.21 195.72 15.8877 195.72 15.4901C195.72 15.0924 195.398 14.77 195 14.77C194.602 14.77 194.28 15.0924 194.28 15.4901C194.28 15.8877 194.602 16.21 195 16.21Z" fill="#089DD9"/>
<path d="M196.41 19.7199C196.19 19.7199 196.01 19.5399 196.01 19.3199C196.01 19.0999 196.19 18.9199 196.41 18.9199C196.63 18.9199 196.81 19.0999 196.81 19.3199C196.81 19.5399 196.63 19.7199 196.41 19.7199Z" fill="#089DD9"/>
</svg>
